<?xml version="1.0" encoding="UTF-8"?>
<svg xmlns="http://www.w3.org/2000/svg" xmlns:xlink="http://www.w3.org/1999/xlink" width="40px" height="40px" viewBox="0 0 40 40" version="1.1">
<defs>
<radialGradient id="radial0" gradientUnits="userSpaceOnUse" cx="1095.198" cy="333" fx="1095.198" fy="333" r="175" gradientTransform="matrix(0.037974,0,0,0.037974,-10.682998,-3.088194)">
<stop offset="0" style="stop-color:rgb(100%,100%,100%);stop-opacity:1;"/>
<stop offset="1" style="stop-color:rgb(85.490196%,57.647059%,27.45098%);stop-opacity:1;"/>
</radialGradient>
<radialGradient id="radial1" gradientUnits="userSpaceOnUse" cx="800.07397" cy="688.21301" fx="800.07397" fy="688.21301" r="518.75" gradientTransform="matrix(0.037974,0,0,0.037974,-10.682998,-3.088194)">
<stop offset="0" style="stop-color:rgb(100%,100%,100%);stop-opacity:1;"/>
<stop offset="1" style="stop-color:rgb(85.490196%,57.647059%,27.45098%);stop-opacity:1;"/>
</radialGradient>
</defs>
<g id="surface1">
<path style=" stroke:none;fill-rule:nonzero;fill:rgb(91.764706%,12.941176%,4.705882%);fill-opacity:1;" d="M 12.808594 27.359375 L 12.648438 27.359375 C 12.273438 27.359375 11.90625 27.511719 11.640625 27.777344 C 11.375 28.042969 11.226562 28.410156 11.226562 28.785156 C 11.226562 29.160156 11.375 29.527344 11.640625 29.792969 C 11.90625 30.058594 12.273438 30.207031 12.648438 30.207031 L 12.808594 30.207031 C 13.183594 30.207031 13.546875 30.058594 13.8125 29.792969 C 14.078125 29.527344 14.230469 29.160156 14.230469 28.785156 C 14.230469 28.410156 14.078125 28.042969 13.8125 27.777344 C 13.546875 27.511719 13.183594 27.359375 12.808594 27.359375 "/>
<path style=" stroke:none;fill-rule:nonzero;fill:rgb(100%,86.666667%,54.117647%);fill-opacity:1;" d="M 22.710938 16.757812 C 22.710938 16.015625 22.65625 14.628906 22.605469 13.289062 C 22.554688 11.941406 22.5 10.546875 22.5 9.792969 C 22.5 9.054688 22.460938 8.339844 22.421875 7.652344 C 22.382812 6.949219 22.34375 6.226562 22.34375 5.46875 C 22.34375 4.703125 22.394531 4.515625 22.476562 4.320312 C 22.511719 4.238281 22.554688 4.136719 22.554688 3.464844 L 22.554688 3.460938 C 22.554688 3.253906 22.722656 3.085938 22.929688 3.085938 L 23.011719 3.085938 C 24.761719 3.085938 26.492188 3.246094 28.167969 3.566406 L 28.488281 3.625 C 30.050781 3.921875 31.667969 4.226562 33.058594 4.792969 C 34.523438 5.386719 35.882812 6.117188 37.101562 6.957031 C 37.722656 7.386719 38.308594 7.847656 38.847656 8.332031 C 39.21875 8.664062 39.574219 9.011719 39.902344 9.367188 L 39.90625 9.371094 C 40.082031 9.5625 40.019531 9.871094 39.621094 9.972656 L 23.078125 17.105469 C 22.988281 17.214844 22.710938 17.03125 22.710938 16.761719 Z M 22.710938 16.757812 "/>
<path style=" stroke:none;fill-rule:nonzero;fill:url(#radial0);" d="M 22.546875 2.910156 C 22.546875 4.40625 22.335938 3.417969 22.335938 4.914062 C 22.335938 6.40625 22.492188 7.746094 22.492188 9.238281 C 22.492188 10.734375 22.707031 14.707031 22.707031 16.203125 C 24.253906 15.535156 25.804688 14.867188 27.351562 14.199219 C 28.902344 13.53125 30.449219 12.863281 32 12.195312 C 33.546875 11.527344 35.097656 10.859375 36.648438 10.191406 C 37.304688 9.90625 38.199219 9.542969 38.859375 9.261719 C 39.066406 9.171875 39.269531 9.082031 39.476562 8.992188 C 39.152344 8.644531 38.808594 8.308594 38.445312 7.980469 C 37.917969 7.507812 37.109375 7.136719 36.5 6.714844 C 35.308594 5.894531 33.976562 5.179688 32.527344 4.589844 C 31.082031 4 29.359375 3.695312 27.710938 3.382812 C 26.089844 3.074219 24.382812 2.910156 22.625 2.910156 C 22.601562 2.910156 22.574219 2.910156 22.546875 2.910156 Z M 22.546875 2.910156 "/>
<path style=" stroke:none;fill-rule:nonzero;fill:rgb(91.764706%,12.941176%,4.705882%);fill-opacity:1;" d="M 23.355469 7.488281 L 24.917969 7.726562 C 25.191406 7.769531 25.464844 7.808594 25.734375 7.851562 C 25.960938 7.886719 26.195312 7.90625 26.414062 7.984375 C 26.300781 7.9375 26.1875 7.890625 26.074219 7.84375 C 26.125 7.863281 26.167969 7.890625 26.214844 7.917969 C 26.121094 7.84375 26.023438 7.769531 25.929688 7.695312 C 25.96875 7.730469 26.003906 7.761719 26.039062 7.804688 C 25.964844 7.707031 25.890625 7.613281 25.816406 7.515625 C 25.855469 7.570312 25.886719 7.625 25.914062 7.683594 C 25.863281 7.570312 25.816406 7.457031 25.769531 7.34375 C 25.945312 7.777344 26.066406 8.191406 26.410156 8.53125 C 26.765625 8.886719 27.191406 8.972656 27.675781 8.980469 C 27.871094 8.984375 28.066406 8.992188 28.265625 9 C 29.023438 9.027344 29.785156 9.097656 30.539062 9.199219 C 30.414062 9.179688 30.289062 9.164062 30.160156 9.148438 C 30.796875 9.230469 31.425781 9.339844 32.050781 9.472656 C 32.640625 9.597656 33.234375 9.730469 33.792969 9.960938 C 33.679688 9.914062 33.566406 9.867188 33.453125 9.816406 C 33.707031 9.929688 33.941406 10.0625 34.160156 10.230469 C 34.066406 10.15625 33.96875 10.082031 33.875 10.007812 C 33.882812 10.015625 33.890625 10.023438 33.898438 10.03125 C 33.824219 9.9375 33.75 9.839844 33.675781 9.742188 C 33.691406 9.765625 33.703125 9.785156 33.710938 9.808594 C 33.664062 9.695312 33.617188 9.582031 33.570312 9.46875 C 33.578125 9.492188 33.582031 9.515625 33.585938 9.542969 L 33.535156 9.164062 C 33.53125 9.171875 33.53125 9.183594 33.53125 9.195312 C 33.550781 9.070312 33.566406 8.941406 33.582031 8.816406 C 33.582031 8.824219 33.578125 8.832031 33.574219 8.84375 C 33.695312 8.632812 33.820312 8.421875 33.941406 8.214844 C 33.9375 8.21875 33.929688 8.226562 33.925781 8.230469 C 34.136719 8.109375 34.347656 7.988281 34.554688 7.867188 C 34.546875 7.867188 34.539062 7.871094 34.535156 7.875 L 35.289062 7.875 C 35.28125 7.871094 35.269531 7.871094 35.261719 7.867188 C 34.867188 7.800781 34.519531 7.804688 34.164062 8.011719 C 33.847656 8.199219 33.609375 8.507812 33.511719 8.863281 C 33.410156 9.230469 33.460938 9.632812 33.652344 9.960938 C 33.824219 10.253906 34.15625 10.554688 34.503906 10.613281 C 34.785156 10.664062 35.03125 10.710938 35.3125 10.613281 C 35.679688 10.480469 35.976562 10.28125 36.179688 9.941406 C 36.476562 9.429688 36.402344 8.882812 36.171875 8.371094 C 36.027344 8.050781 35.722656 7.851562 35.445312 7.65625 C 35.308594 7.5625 35.15625 7.484375 35.007812 7.410156 C 34.238281 7.042969 33.417969 6.851562 32.589844 6.683594 C 30.902344 6.335938 29.175781 6.148438 27.453125 6.128906 C 27.789062 6.269531 28.125 6.410156 28.460938 6.546875 C 28.421875 6.515625 28.390625 6.488281 28.359375 6.449219 C 28.433594 6.546875 28.507812 6.640625 28.582031 6.738281 C 28.546875 6.683594 28.519531 6.628906 28.492188 6.570312 C 28.539062 6.683594 28.585938 6.796875 28.636719 6.914062 C 28.460938 6.472656 28.332031 5.992188 27.941406 5.683594 C 27.648438 5.449219 27.378906 5.285156 27.011719 5.191406 C 26.84375 5.148438 26.664062 5.128906 26.492188 5.105469 C 25.699219 4.984375 24.90625 4.863281 24.109375 4.742188 C 23.714844 4.679688 23.375 4.675781 23.015625 4.882812 C 22.695312 5.070312 22.457031 5.378906 22.359375 5.734375 C 22.257812 6.101562 22.308594 6.503906 22.503906 6.832031 C 22.671875 7.121094 23.007812 7.433594 23.355469 7.488281 "/>
<path style=" stroke:none;fill-rule:nonzero;fill:rgb(95.686275%,92.941176%,46.27451%);fill-opacity:1;" d="M 34.570312 10.664062 C 34.015625 10.171875 33.773438 9.320312 32.792969 9.320312 C 32.503906 9.320312 32.234375 9.371094 31.992188 9.460938 C 31.683594 7.996094 29.894531 6.867188 27.730469 6.867188 C 26.742188 6.867188 25.835938 7.101562 25.109375 7.496094 L 22.167969 5.804688 L 22.652344 11.542969 L 22.328125 16.792969 L 28.246094 13.847656 L 28.175781 13.796875 L 32.613281 12.058594 C 32.671875 12.046875 32.730469 12.03125 32.792969 12.007812 C 34.097656 11.535156 35.285156 11.296875 34.570312 10.664062 "/>
<path style=" stroke:none;fill-rule:nonzero;fill:rgb(95.686275%,92.941176%,46.27451%);fill-opacity:1;" d="M 24.761719 15.292969 C 24.761719 17.238281 24.214844 18.8125 23.535156 18.8125 C 22.859375 18.8125 22.308594 17.238281 22.308594 15.292969 C 22.308594 13.347656 22.859375 11.773438 23.535156 11.773438 C 24.214844 11.773438 24.761719 13.347656 24.761719 15.292969 "/>
<path style=" stroke:none;fill-rule:nonzero;fill:rgb(95.686275%,92.941176%,46.27451%);fill-opacity:1;" d="M 26.503906 15.570312 C 26.503906 16.355469 26.042969 16.992188 25.472656 16.992188 C 24.90625 16.992188 24.445312 16.355469 24.445312 15.570312 C 24.445312 14.785156 24.90625 14.144531 25.472656 14.144531 C 26.042969 14.144531 26.503906 14.785156 26.503906 15.570312 "/>
<path style=" stroke:none;fill-rule:nonzero;fill:rgb(77.647059%,3.529412%,24.705882%);fill-opacity:1;" d="M 26.460938 14.542969 C 25.734375 14.542969 25.042969 14.363281 24.523438 14.039062 C 23.964844 13.691406 23.65625 13.214844 23.65625 12.703125 C 23.65625 12.1875 23.964844 11.714844 24.523438 11.367188 C 25.042969 11.039062 25.734375 10.859375 26.460938 10.859375 C 27.191406 10.859375 27.882812 11.039062 28.402344 11.367188 C 28.960938 11.714844 29.269531 12.1875 29.269531 12.703125 C 29.269531 13.214844 28.960938 13.691406 28.402344 14.039062 C 27.882812 14.363281 27.191406 14.542969 26.460938 14.542969 "/>
<path style=" stroke:none;fill-rule:nonzero;fill:rgb(91.764706%,6.666667%,27.058824%);fill-opacity:1;" d="M 29.03125 12.441406 C 29.03125 13.328125 27.882812 14.046875 26.464844 14.046875 C 25.042969 14.046875 23.894531 13.328125 23.894531 12.441406 C 23.894531 11.554688 25.042969 10.835938 26.464844 10.835938 C 27.882812 10.835938 29.03125 11.554688 29.03125 12.441406 "/>
<path style=" stroke:none;fill-rule:nonzero;fill:rgb(97.647059%,96.862745%,97.254902%);fill-opacity:1;" d="M 26.824219 12.132812 C 26.824219 12.328125 26.574219 12.484375 26.265625 12.484375 C 25.957031 12.484375 25.707031 12.328125 25.707031 12.132812 C 25.707031 11.941406 25.957031 11.785156 26.265625 11.785156 C 26.574219 11.785156 26.824219 11.941406 26.824219 12.132812 "/>
<path style=" stroke:none;fill-rule:nonzero;fill:rgb(97.647059%,96.862745%,97.254902%);fill-opacity:1;" d="M 26.96875 13.320312 C 26.96875 13.5625 26.652344 13.757812 26.265625 13.757812 C 25.878906 13.757812 25.5625 13.5625 25.5625 13.320312 C 25.5625 13.078125 25.878906 12.878906 26.265625 12.878906 C 26.652344 12.878906 26.96875 13.078125 26.96875 13.320312 "/>
<path style=" stroke:none;fill-rule:nonzero;fill:rgb(97.647059%,96.862745%,97.254902%);fill-opacity:1;" d="M 28.074219 13.269531 C 28.074219 13.417969 27.882812 13.535156 27.648438 13.535156 C 27.414062 13.535156 27.222656 13.417969 27.222656 13.269531 C 27.222656 13.125 27.414062 13.003906 27.648438 13.003906 C 27.882812 13.003906 28.074219 13.125 28.074219 13.269531 "/>
<path style=" stroke:none;fill-rule:nonzero;fill:rgb(97.647059%,96.862745%,97.254902%);fill-opacity:1;" d="M 26.007812 11.292969 C 26.007812 11.410156 25.855469 11.503906 25.671875 11.503906 C 25.488281 11.503906 25.339844 11.410156 25.339844 11.292969 C 25.339844 11.179688 25.488281 11.085938 25.671875 11.085938 C 25.855469 11.085938 26.007812 11.179688 26.007812 11.292969 "/>
<path style=" stroke:none;fill-rule:nonzero;fill:rgb(97.647059%,96.862745%,97.254902%);fill-opacity:1;" d="M 28.726562 12.382812 C 28.726562 12.53125 28.53125 12.65625 28.289062 12.65625 C 28.046875 12.65625 27.851562 12.53125 27.851562 12.382812 C 27.851562 12.230469 28.046875 12.109375 28.289062 12.109375 C 28.53125 12.109375 28.726562 12.230469 28.726562 12.382812 "/>
<path style=" stroke:none;fill-rule:nonzero;fill:rgb(97.647059%,96.862745%,97.254902%);fill-opacity:1;" d="M 25.367188 12.882812 C 25.367188 13.050781 25.144531 13.191406 24.875 13.191406 C 24.601562 13.191406 24.378906 13.050781 24.378906 12.882812 C 24.378906 12.710938 24.601562 12.574219 24.875 12.574219 C 25.144531 12.574219 25.367188 12.710938 25.367188 12.882812 "/>
<path style=" stroke:none;fill-rule:nonzero;fill:rgb(97.647059%,96.862745%,97.254902%);fill-opacity:1;" d="M 28.222656 11.492188 C 28.222656 11.707031 27.941406 11.882812 27.597656 11.882812 C 27.253906 11.882812 26.976562 11.707031 26.976562 11.492188 C 26.976562 11.277344 27.253906 11.101562 27.597656 11.101562 C 27.941406 11.101562 28.222656 11.277344 28.222656 11.492188 "/>
<path style=" stroke:none;fill-rule:nonzero;fill:rgb(20%,60%,0%);fill-opacity:1;" d="M 24.566406 7.371094 C 24.1875 7.371094 23.863281 7.597656 23.863281 7.867188 C 23.863281 7.9375 23.886719 8.003906 23.929688 8.070312 L 24.0625 8.273438 L 23.835938 8.371094 C 23.546875 8.488281 23.371094 8.710938 23.371094 8.945312 C 23.371094 9.3125 23.78125 9.609375 24.289062 9.609375 C 24.566406 9.609375 24.828125 9.519531 25.003906 9.359375 L 25.136719 9.242188 L 25.273438 9.355469 C 25.449219 9.5 25.703125 9.582031 25.964844 9.582031 C 26.476562 9.582031 26.890625 9.285156 26.890625 8.914062 C 26.890625 8.71875 26.765625 8.527344 26.546875 8.398438 L 26.316406 8.261719 L 26.511719 8.078125 C 26.574219 8.015625 26.644531 7.917969 26.644531 7.785156 C 26.644531 7.519531 26.324219 7.292969 25.945312 7.292969 C 25.710938 7.292969 25.496094 7.375 25.363281 7.519531 L 25.234375 7.65625 L 25.085938 7.539062 C 24.953125 7.433594 24.761719 7.371094 24.566406 7.371094 M 24.078125 10.359375 C 23.65625 10.359375 23.261719 10.234375 22.960938 10 C 22.644531 9.753906 22.46875 9.425781 22.46875 9.070312 C 22.46875 8.648438 22.722656 8.257812 23.140625 8.019531 C 23.105469 7.921875 23.089844 7.820312 23.089844 7.71875 C 23.089844 7.125 23.6875 6.640625 24.421875 6.640625 C 24.710938 6.640625 24.988281 6.714844 25.214844 6.847656 C 25.460938 6.652344 25.792969 6.542969 26.152344 6.542969 C 26.886719 6.542969 27.488281 7.027344 27.488281 7.621094 C 27.488281 7.796875 27.433594 7.972656 27.332031 8.125 C 27.625 8.367188 27.789062 8.6875 27.789062 9.03125 C 27.789062 9.386719 27.613281 9.71875 27.296875 9.964844 C 26.996094 10.199219 26.597656 10.328125 26.175781 10.328125 C 25.792969 10.328125 25.4375 10.226562 25.148438 10.035156 C 24.855469 10.242188 24.476562 10.359375 24.078125 10.359375 "/>
<path style=" stroke:none;fill-rule:nonzero;fill:rgb(44.705882%,93.72549%,26.27451%);fill-opacity:1;" d="M 25.921875 9.53125 C 25.597656 9.53125 25.304688 9.425781 25.097656 9.253906 C 24.890625 9.441406 24.585938 9.558594 24.246094 9.558594 C 23.625 9.558594 23.121094 9.171875 23.121094 8.691406 C 23.121094 8.359375 23.363281 8.070312 23.714844 7.925781 C 23.652344 7.828125 23.617188 7.722656 23.617188 7.609375 C 23.617188 7.222656 24.023438 6.910156 24.523438 6.910156 C 24.777344 6.910156 25.003906 6.992188 25.171875 7.121094 C 25.335938 6.945312 25.601562 6.832031 25.902344 6.832031 C 26.402344 6.832031 26.808594 7.144531 26.808594 7.53125 C 26.808594 7.695312 26.734375 7.847656 26.609375 7.96875 C 26.878906 8.128906 27.050781 8.378906 27.050781 8.660156 C 27.050781 9.140625 26.546875 9.53125 25.921875 9.53125 M 26.992188 7.910156 C 27.144531 7.761719 27.238281 7.570312 27.238281 7.363281 C 27.238281 6.882812 26.734375 6.488281 26.109375 6.488281 C 25.730469 6.488281 25.394531 6.632812 25.191406 6.855469 C 24.984375 6.691406 24.699219 6.589844 24.382812 6.589844 C 23.757812 6.589844 23.25 6.980469 23.25 7.464844 C 23.25 7.605469 23.292969 7.738281 23.371094 7.855469 C 22.929688 8.039062 22.632812 8.398438 22.632812 8.8125 C 22.632812 9.414062 23.257812 9.898438 24.035156 9.898438 C 24.460938 9.898438 24.84375 9.753906 25.101562 9.519531 C 25.359375 9.734375 25.726562 9.867188 26.132812 9.867188 C 26.910156 9.867188 27.542969 9.378906 27.542969 8.777344 C 27.542969 8.421875 27.328125 8.109375 26.992188 7.910156 "/>
<path style=" stroke:none;fill-rule:nonzero;fill:rgb(84.705882%,63.529412%,20.784314%);fill-opacity:1;" d="M 30.226562 11.960938 L 30.441406 11.125 C 29.699219 10.886719 29.265625 10.492188 29.265625 10.042969 C 29.265625 9.667969 29.570312 9.328125 30.125 9.085938 C 30.621094 8.867188 31.277344 8.746094 31.972656 8.746094 C 32.664062 8.746094 33.320312 8.867188 33.816406 9.085938 C 34.371094 9.328125 34.675781 9.667969 34.675781 10.042969 C 34.675781 10.503906 34.226562 10.902344 33.460938 11.136719 L 33.738281 11.960938 Z M 30.226562 11.960938 "/>
<path style=" stroke:none;fill-rule:nonzero;fill:rgb(95.686275%,74.117647%,25.882353%);fill-opacity:1;" d="M 34.410156 9.816406 C 34.410156 9.226562 33.316406 8.746094 31.972656 8.746094 C 30.625 8.746094 29.53125 9.226562 29.53125 9.816406 C 29.53125 10.210938 30.023438 10.558594 30.753906 10.742188 L 30.558594 11.503906 L 33.386719 11.503906 L 33.132812 10.757812 C 33.894531 10.574219 34.410156 10.222656 34.410156 9.816406 "/>
<path style=" stroke:none;fill-rule:nonzero;fill:rgb(81.960784%,60.392157%,17.254902%);fill-opacity:1;" d="M 30.53125 10.453125 C 30.710938 10.316406 30.917969 10.242188 31.144531 10.234375 C 31.300781 10.226562 31.304688 9.980469 31.144531 9.988281 C 30.878906 10 30.621094 10.078125 30.40625 10.238281 C 30.28125 10.332031 30.40625 10.546875 30.53125 10.453125 "/>
<path style=" stroke:none;fill-rule:nonzero;fill:rgb(81.960784%,60.392157%,17.254902%);fill-opacity:1;" d="M 32.476562 10.199219 C 32.789062 10.179688 33.085938 10.246094 33.351562 10.417969 C 33.484375 10.503906 33.609375 10.289062 33.476562 10.203125 C 33.175781 10.011719 32.828125 9.929688 32.476562 9.953125 C 32.316406 9.964844 32.316406 10.210938 32.476562 10.199219 "/>
<path style=" stroke:none;fill-rule:nonzero;fill:url(#radial1);" d="M 18.925781 9.015625 C 13.101562 9.175781 7.925781 11.136719 4.464844 14.144531 C 2.628906 15.738281 1.277344 17.625 0.566406 19.691406 C 0.195312 20.765625 0 21.890625 0 23.046875 C 0 24.171875 0.1875 25.269531 0.539062 26.316406 C 1.242188 28.417969 2.605469 30.332031 4.464844 31.949219 C 6.871094 34.039062 10.113281 35.628906 13.824219 36.453125 C 15.679688 36.867188 17.652344 37.089844 19.699219 37.089844 C 21.683594 37.089844 23.597656 36.878906 25.402344 36.492188 C 29.183594 35.675781 32.488281 34.074219 34.933594 31.949219 C 36.632812 30.472656 37.921875 28.742188 38.664062 26.851562 C 39.144531 25.640625 39.398438 24.363281 39.398438 23.046875 C 39.398438 22.257812 39.308594 21.480469 39.132812 20.726562 C 38.671875 18.757812 37.636719 16.925781 36.152344 15.324219 C 31.234375 17.445312 26.3125 19.566406 21.394531 21.6875 C 20.800781 21.941406 20.210938 22.199219 19.621094 22.453125 L 19.621094 9.003906 C 19.386719 9.003906 19.15625 9.007812 18.925781 9.015625 Z M 18.925781 9.015625 "/>
<path style=" stroke:none;fill-rule:nonzero;fill:rgb(91.764706%,12.941176%,4.705882%);fill-opacity:1;" d="M 13.136719 33.25 C 15.578125 33.820312 18.125 33.902344 20.625 33.960938 C 21.828125 33.988281 23.035156 33.941406 24.214844 33.6875 C 24.84375 33.550781 25.449219 33.320312 26.027344 33.042969 C 26.523438 32.804688 26.96875 32.484375 27.421875 32.171875 C 27.855469 31.871094 28.300781 31.585938 28.789062 31.375 C 28.675781 31.421875 28.5625 31.46875 28.449219 31.519531 C 29.191406 31.210938 29.984375 31.058594 30.738281 30.796875 C 31.5 30.53125 32.222656 30.171875 32.863281 29.683594 C 33.59375 29.128906 34.191406 28.519531 34.730469 27.769531 C 34.996094 27.394531 35.261719 26.96875 35.375 26.519531 C 35.421875 26.335938 35.449219 26.136719 35.433594 25.949219 C 35.402344 25.566406 35.335938 25.414062 35.183594 25.0625 C 35.113281 24.898438 34.984375 24.761719 34.90625 24.601562 C 34.953125 24.714844 35.003906 24.828125 35.050781 24.941406 C 35.011719 24.851562 34.988281 24.757812 34.972656 24.660156 L 35.023438 25.039062 C 35.015625 24.941406 35.015625 24.847656 35.023438 24.75 C 35.007812 24.875 34.992188 25 34.972656 25.128906 C 34.996094 24.964844 35.039062 24.8125 35.101562 24.660156 L 34.957031 25 C 35.074219 24.734375 35.238281 24.5 35.417969 24.265625 C 35.34375 24.363281 35.269531 24.460938 35.195312 24.554688 C 35.382812 24.308594 35.578125 24.066406 35.761719 23.816406 C 35.957031 23.546875 36.089844 23.253906 36.214844 22.941406 C 36.445312 22.367188 36.421875 21.722656 36.390625 21.113281 C 36.332031 20.011719 36.269531 18.910156 36.210938 17.804688 C 36.167969 17.03125 35.59375 16.382812 34.789062 16.382812 C 34.042969 16.382812 33.320312 17.03125 33.363281 17.804688 C 33.402344 18.53125 33.441406 19.257812 33.480469 19.984375 C 33.5 20.335938 33.519531 20.6875 33.539062 21.039062 C 33.558594 21.394531 33.585938 21.753906 33.539062 22.113281 C 33.558594 21.988281 33.574219 21.859375 33.589844 21.734375 C 33.566406 21.890625 33.527344 22.039062 33.46875 22.183594 C 33.515625 22.070312 33.566406 21.957031 33.613281 21.84375 C 33.496094 22.113281 33.328125 22.351562 33.152344 22.582031 C 33.226562 22.484375 33.300781 22.390625 33.375 22.292969 C 32.910156 22.890625 32.453125 23.441406 32.257812 24.195312 C 32.140625 24.648438 32.136719 25.136719 32.261719 25.589844 C 32.320312 25.800781 32.417969 26.007812 32.535156 26.195312 C 32.609375 26.316406 32.691406 26.421875 32.75 26.554688 C 32.699219 26.441406 32.652344 26.328125 32.605469 26.214844 C 32.621094 26.25 32.628906 26.289062 32.636719 26.328125 C 32.617188 26.199219 32.601562 26.074219 32.585938 25.949219 C 32.589844 25.992188 32.589844 26.035156 32.585938 26.074219 L 32.636719 25.699219 C 32.625 25.785156 32.601562 25.863281 32.566406 25.945312 C 32.613281 25.832031 32.664062 25.71875 32.710938 25.605469 C 32.558594 25.933594 32.347656 26.238281 32.128906 26.523438 C 32.203125 26.429688 32.277344 26.332031 32.351562 26.234375 C 32 26.691406 31.59375 27.097656 31.136719 27.449219 C 31.234375 27.375 31.328125 27.300781 31.425781 27.226562 C 30.984375 27.5625 30.503906 27.84375 29.992188 28.058594 L 30.332031 27.914062 C 29.835938 28.121094 29.3125 28.257812 28.796875 28.402344 C 28.175781 28.578125 27.5625 28.789062 26.988281 29.085938 C 26.046875 29.566406 25.269531 30.300781 24.292969 30.71875 C 24.40625 30.667969 24.519531 30.621094 24.632812 30.574219 C 24.03125 30.824219 23.398438 30.972656 22.753906 31.0625 C 22.878906 31.046875 23.007812 31.03125 23.132812 31.011719 C 21.890625 31.175781 20.640625 31.117188 19.394531 31.074219 C 18.027344 31.023438 16.664062 30.960938 15.308594 30.78125 C 15.433594 30.796875 15.5625 30.8125 15.6875 30.832031 C 15.085938 30.75 14.484375 30.640625 13.890625 30.503906 C 13.136719 30.328125 12.351562 30.726562 12.140625 31.496094 C 11.941406 32.222656 12.378906 33.074219 13.136719 33.25 "/>
<path style=" stroke:none;fill-rule:nonzero;fill:rgb(91.764706%,12.941176%,4.705882%);fill-opacity:1;" d="M 17.664062 9.324219 C 16.960938 9.464844 16.269531 9.773438 15.695312 10.195312 C 15.359375 10.441406 15.042969 10.699219 14.769531 11.011719 C 14.496094 11.324219 14.285156 11.671875 14.042969 12.003906 C 14.117188 11.910156 14.191406 11.8125 14.265625 11.71875 C 14.21875 11.777344 14.167969 11.828125 14.105469 11.878906 C 14.203125 11.804688 14.300781 11.730469 14.394531 11.65625 C 14.34375 11.6875 14.296875 11.714844 14.242188 11.738281 C 14.355469 11.6875 14.46875 11.640625 14.582031 11.59375 C 14.507812 11.617188 14.433594 11.636719 14.355469 11.648438 C 14.480469 11.632812 14.605469 11.617188 14.734375 11.597656 C 14.167969 11.671875 13.59375 11.695312 13.027344 11.765625 C 12.339844 11.851562 11.660156 11.953125 10.984375 12.097656 C 9.804688 12.347656 8.648438 12.757812 7.578125 13.3125 C 6.609375 13.816406 5.699219 14.496094 4.953125 15.296875 C 4.070312 16.25 3.472656 17.359375 3.039062 18.578125 C 2.6875 19.550781 2.445312 20.570312 2.34375 21.597656 C 2.257812 22.488281 2.390625 23.4375 2.667969 24.285156 C 2.988281 25.253906 3.492188 26.113281 4.160156 26.882812 C 4.726562 27.53125 5.476562 27.992188 6.007812 28.675781 C 5.933594 28.578125 5.859375 28.484375 5.785156 28.386719 C 6.089844 28.785156 6.335938 29.21875 6.632812 29.621094 C 7.089844 30.230469 7.605469 30.734375 8.292969 31.082031 C 8.828125 31.355469 9.398438 31.574219 9.953125 31.8125 C 10.554688 32.070312 11.15625 32.328125 11.753906 32.589844 C 12.125 32.746094 12.449219 32.84375 12.851562 32.730469 C 13.207031 32.632812 13.515625 32.394531 13.703125 32.078125 C 13.894531 31.75 13.949219 31.347656 13.847656 30.980469 C 13.757812 30.660156 13.511719 30.265625 13.191406 30.128906 L 11.113281 29.234375 C 10.457031 28.949219 9.738281 28.710938 9.160156 28.273438 C 9.253906 28.347656 9.351562 28.421875 9.449219 28.496094 C 9.242188 28.335938 9.066406 28.148438 8.90625 27.941406 C 8.980469 28.039062 9.054688 28.132812 9.128906 28.230469 C 8.621094 27.566406 8.234375 26.832031 7.644531 26.234375 C 7.085938 25.671875 6.4375 25.222656 5.945312 24.589844 C 6.019531 24.6875 6.09375 24.78125 6.167969 24.878906 C 5.863281 24.480469 5.613281 24.046875 5.417969 23.582031 C 5.46875 23.695312 5.515625 23.808594 5.5625 23.921875 C 5.371094 23.457031 5.242188 22.972656 5.171875 22.476562 C 5.1875 22.601562 5.203125 22.730469 5.222656 22.855469 C 5.152344 22.34375 5.15625 21.828125 5.226562 21.316406 C 5.207031 21.441406 5.191406 21.570312 5.175781 21.695312 C 5.320312 20.695312 5.617188 19.691406 6.007812 18.761719 C 5.960938 18.875 5.910156 18.988281 5.863281 19.101562 C 6.113281 18.523438 6.417969 17.976562 6.804688 17.476562 C 6.730469 17.574219 6.65625 17.671875 6.582031 17.765625 C 6.976562 17.261719 7.433594 16.816406 7.9375 16.425781 C 7.839844 16.5 7.746094 16.574219 7.648438 16.648438 C 8.300781 16.144531 9.019531 15.738281 9.777344 15.414062 C 9.664062 15.460938 9.550781 15.507812 9.4375 15.554688 C 10.636719 15.054688 11.910156 14.765625 13.195312 14.589844 C 13.070312 14.605469 12.941406 14.625 12.816406 14.640625 C 13.433594 14.558594 14.054688 14.519531 14.671875 14.453125 C 15.265625 14.394531 15.765625 14.238281 16.207031 13.816406 C 16.472656 13.5625 16.636719 13.210938 16.859375 12.917969 C 16.785156 13.015625 16.710938 13.109375 16.636719 13.207031 C 16.851562 12.929688 17.097656 12.683594 17.371094 12.46875 C 17.277344 12.542969 17.179688 12.617188 17.085938 12.691406 C 17.363281 12.480469 17.664062 12.304688 17.984375 12.164062 C 17.871094 12.210938 17.757812 12.261719 17.644531 12.308594 C 17.894531 12.203125 18.152344 12.125 18.417969 12.070312 C 19.179688 11.914062 19.609375 11.027344 19.414062 10.316406 C 19.316406 9.960938 19.078125 9.652344 18.761719 9.464844 C 18.414062 9.261719 18.046875 9.246094 17.664062 9.324219 "/>
<path style=" stroke:none;fill-rule:nonzero;fill:rgb(95.686275%,92.941176%,46.27451%);fill-opacity:1;" d="M 35.359375 21.019531 L 34.941406 17.542969 C 35.445312 16.261719 34.175781 15.464844 32.578125 16.851562 L 19.84375 22.25 C 19.757812 22.285156 19.683594 22.335938 19.617188 22.402344 L 19.617188 13.015625 C 20.25 11.535156 19.0625 10.902344 18.113281 11.613281 L 14.871094 12.324219 C 14.378906 12.324219 13.433594 13.261719 12.980469 13.890625 C 12.785156 13.878906 12.582031 13.871094 12.378906 13.871094 C 8.972656 13.871094 6.210938 15.976562 6.210938 18.578125 C 6.210938 18.695312 6.214844 18.8125 6.226562 18.929688 C 4.914062 19.792969 4.078125 21.070312 4.078125 22.496094 C 4.078125 24.519531 5.75 26.242188 8.089844 26.910156 C 8.320312 29.351562 10.988281 31.277344 14.246094 31.277344 C 15.304688 31.277344 16.300781 31.074219 17.171875 30.714844 C 18.292969 31.597656 19.863281 32.148438 21.605469 32.148438 C 24.054688 32.148438 26.171875 31.058594 27.167969 29.480469 C 27.355469 29.492188 27.542969 29.5 27.734375 29.5 C 31.140625 29.5 33.90625 27.390625 33.90625 24.792969 C 33.90625 24.53125 33.878906 24.277344 33.824219 24.027344 C 34.414062 23.496094 35.597656 21.582031 35.359375 21.019531 "/>
<path style=" stroke:none;fill-rule:nonzero;fill:rgb(95.686275%,92.941176%,46.27451%);fill-opacity:1;" d="M 21.476562 31.714844 C 21.390625 32.125 20.988281 32.386719 20.578125 32.300781 L 14.628906 31.058594 C 14.21875 30.972656 13.957031 30.570312 14.042969 30.160156 L 14.28125 29.011719 C 14.367188 28.601562 14.769531 28.339844 15.179688 28.425781 L 21.128906 29.667969 C 21.539062 29.753906 21.800781 30.15625 21.714844 30.566406 Z M 21.476562 31.714844 "/>
<path style=" stroke:none;fill-rule:nonzero;fill:rgb(84.705882%,63.529412%,20.784314%);fill-opacity:1;" d="M 5.132812 22.773438 L 5.511719 21.996094 C 4.828125 21.617188 4.480469 21.144531 4.570312 20.707031 C 4.644531 20.335938 5.007812 20.0625 5.601562 19.933594 C 6.132812 19.816406 6.796875 19.828125 7.476562 19.964844 C 8.15625 20.097656 8.777344 20.347656 9.222656 20.65625 C 9.714844 21.003906 9.949219 21.398438 9.875 21.769531 C 9.785156 22.21875 9.265625 22.519531 8.46875 22.601562 L 8.578125 23.464844 Z M 5.132812 22.773438 "/>
<path style=" stroke:none;fill-rule:nonzero;fill:rgb(95.686275%,74.117647%,25.882353%);fill-opacity:1;" d="M 9.660156 21.492188 C 9.773438 20.914062 8.796875 20.226562 7.476562 19.964844 C 6.15625 19.699219 4.992188 19.953125 4.875 20.535156 C 4.796875 20.921875 5.210938 21.359375 5.890625 21.683594 L 5.550781 22.390625 L 8.320312 22.945312 L 8.222656 22.164062 C 9.003906 22.136719 9.578125 21.890625 9.660156 21.492188 "/>
<path style=" stroke:none;fill-rule:nonzero;fill:rgb(81.960784%,60.392157%,17.254902%);fill-opacity:1;" d="M 5.753906 21.34375 C 5.945312 21.25 6.15625 21.226562 6.363281 21.257812 C 6.519531 21.285156 6.585938 21.046875 6.429688 21.019531 C 6.152344 20.976562 5.882812 21.007812 5.628906 21.132812 C 5.484375 21.199219 5.609375 21.414062 5.753906 21.34375 "/>
<path style=" stroke:none;fill-rule:nonzero;fill:rgb(81.960784%,60.392157%,17.254902%);fill-opacity:1;" d="M 7.710938 21.492188 C 8.007812 21.53125 8.28125 21.660156 8.496094 21.867188 C 8.609375 21.976562 8.785156 21.804688 8.671875 21.695312 C 8.40625 21.4375 8.074219 21.292969 7.710938 21.246094 C 7.554688 21.222656 7.554688 21.46875 7.710938 21.492188 "/>
<path style=" stroke:none;fill-rule:nonzero;fill:rgb(20%,60%,0%);fill-opacity:1;" d="M 19.425781 28.453125 C 19.046875 28.453125 18.726562 28.679688 18.726562 28.945312 C 18.726562 29.015625 18.746094 29.085938 18.789062 29.148438 L 18.921875 29.355469 L 18.695312 29.449219 C 18.410156 29.570312 18.230469 29.789062 18.230469 30.027344 C 18.230469 30.390625 18.640625 30.691406 19.148438 30.691406 C 19.425781 30.691406 19.6875 30.597656 19.863281 30.4375 L 19.996094 30.320312 L 20.132812 30.433594 C 20.308594 30.578125 20.5625 30.664062 20.824219 30.664062 C 21.335938 30.664062 21.75 30.363281 21.75 29.996094 C 21.75 29.796875 21.625 29.609375 21.410156 29.480469 L 21.179688 29.34375 L 21.371094 29.15625 C 21.433594 29.097656 21.507812 28.996094 21.507812 28.867188 C 21.507812 28.597656 21.1875 28.371094 20.808594 28.371094 C 20.574219 28.371094 20.355469 28.457031 20.222656 28.597656 L 20.09375 28.734375 L 19.945312 28.617188 C 19.8125 28.511719 19.621094 28.453125 19.425781 28.453125 M 18.9375 31.441406 C 18.519531 31.441406 18.121094 31.3125 17.820312 31.082031 C 17.503906 30.835938 17.328125 30.503906 17.328125 30.148438 C 17.328125 29.726562 17.582031 29.339844 18 29.097656 C 17.964844 29.003906 17.949219 28.902344 17.949219 28.800781 C 17.949219 28.203125 18.546875 27.71875 19.285156 27.71875 C 19.574219 27.71875 19.847656 27.792969 20.074219 27.929688 C 20.324219 27.730469 20.65625 27.621094 21.011719 27.621094 C 21.746094 27.621094 22.347656 28.105469 22.347656 28.699219 C 22.347656 28.878906 22.292969 29.050781 22.191406 29.207031 C 22.484375 29.445312 22.648438 29.765625 22.648438 30.113281 C 22.648438 30.46875 22.476562 30.800781 22.15625 31.046875 C 21.855469 31.277344 21.457031 31.40625 21.035156 31.40625 C 20.65625 31.40625 20.296875 31.304688 20.007812 31.113281 C 19.714844 31.324219 19.335938 31.441406 18.9375 31.441406 "/>
<path style=" stroke:none;fill-rule:nonzero;fill:rgb(44.705882%,93.72549%,26.27451%);fill-opacity:1;" d="M 20.785156 30.613281 C 20.457031 30.613281 20.164062 30.507812 19.957031 30.335938 C 19.753906 30.519531 19.445312 30.640625 19.105469 30.640625 C 18.484375 30.640625 17.980469 30.25 17.980469 29.769531 C 17.980469 29.4375 18.222656 29.152344 18.574219 29.003906 C 18.511719 28.910156 18.476562 28.804688 18.476562 28.691406 C 18.476562 28.304688 18.882812 27.992188 19.382812 27.992188 C 19.636719 27.992188 19.867188 28.070312 20.03125 28.203125 C 20.195312 28.027344 20.460938 27.910156 20.765625 27.910156 C 21.265625 27.910156 21.667969 28.222656 21.667969 28.609375 C 21.667969 28.777344 21.59375 28.929688 21.46875 29.046875 C 21.738281 29.207031 21.910156 29.457031 21.910156 29.738281 C 21.910156 30.222656 21.40625 30.613281 20.785156 30.613281 M 21.851562 28.992188 C 22.007812 28.839844 22.097656 28.652344 22.097656 28.445312 C 22.097656 27.960938 21.59375 27.570312 20.96875 27.570312 C 20.589844 27.570312 20.257812 27.714844 20.050781 27.933594 C 19.847656 27.769531 19.558594 27.667969 19.242188 27.667969 C 18.617188 27.667969 18.109375 28.0625 18.109375 28.542969 C 18.109375 28.683594 18.15625 28.820312 18.230469 28.9375 C 17.789062 29.121094 17.492188 29.480469 17.492188 29.894531 C 17.492188 30.492188 18.121094 30.980469 18.894531 30.980469 C 19.324219 30.980469 19.703125 30.832031 19.960938 30.601562 C 20.21875 30.8125 20.585938 30.945312 20.992188 30.945312 C 21.769531 30.945312 22.402344 30.457031 22.402344 29.855469 C 22.402344 29.503906 22.1875 29.191406 21.851562 28.992188 "/>
<path style=" stroke:none;fill-rule:nonzero;fill:rgb(20%,60%,0%);fill-opacity:1;" d="M 12.1875 22.117188 C 11.820312 22.023438 11.453125 22.160156 11.382812 22.417969 C 11.367188 22.488281 11.371094 22.558594 11.394531 22.632812 L 11.472656 22.863281 L 11.226562 22.898438 C 10.917969 22.941406 10.691406 23.109375 10.628906 23.335938 C 10.539062 23.691406 10.859375 24.085938 11.351562 24.214844 C 11.621094 24.285156 11.894531 24.261719 12.105469 24.152344 L 12.265625 24.070312 L 12.367188 24.214844 C 12.5 24.402344 12.722656 24.546875 12.980469 24.613281 C 13.472656 24.742188 13.949219 24.558594 14.042969 24.203125 C 14.09375 24.007812 14.019531 23.796875 13.84375 23.617188 L 13.65625 23.425781 L 13.890625 23.292969 C 13.964844 23.253906 14.0625 23.175781 14.09375 23.046875 C 14.164062 22.789062 13.910156 22.488281 13.542969 22.390625 C 13.316406 22.332031 13.085938 22.359375 12.921875 22.460938 L 12.761719 22.5625 L 12.648438 22.410156 C 12.546875 22.273438 12.378906 22.167969 12.1875 22.117188 M 10.957031 24.886719 C 10.550781 24.78125 10.199219 24.554688 9.964844 24.253906 C 9.722656 23.9375 9.636719 23.570312 9.726562 23.230469 C 9.835938 22.820312 10.179688 22.507812 10.644531 22.382812 C 10.636719 22.28125 10.644531 22.179688 10.671875 22.082031 C 10.820312 21.503906 11.523438 21.1875 12.234375 21.375 C 12.515625 21.449219 12.761719 21.589844 12.949219 21.777344 C 13.238281 21.648438 13.585938 21.628906 13.929688 21.71875 C 14.644531 21.90625 15.101562 22.527344 14.949219 23.101562 C 14.902344 23.273438 14.808594 23.425781 14.671875 23.550781 C 14.894531 23.855469 14.972656 24.210938 14.882812 24.542969 C 14.792969 24.886719 14.539062 25.164062 14.171875 25.320312 C 13.820312 25.46875 13.402344 25.492188 12.992188 25.386719 C 12.625 25.289062 12.304688 25.097656 12.074219 24.84375 C 11.738281 24.96875 11.339844 24.988281 10.957031 24.886719 "/>
<path style=" stroke:none;fill-rule:nonzero;fill:rgb(44.705882%,93.72549%,26.27451%);fill-opacity:1;" d="M 12.953125 24.554688 C 12.636719 24.472656 12.378906 24.292969 12.222656 24.074219 C 11.976562 24.203125 11.652344 24.238281 11.320312 24.152344 C 10.722656 23.996094 10.335938 23.492188 10.457031 23.027344 C 10.539062 22.707031 10.84375 22.488281 11.222656 22.4375 C 11.1875 22.328125 11.179688 22.21875 11.210938 22.109375 C 11.308594 21.734375 11.777344 21.535156 12.261719 21.660156 C 12.507812 21.726562 12.710938 21.863281 12.835938 22.03125 C 13.039062 21.902344 13.328125 21.859375 13.617188 21.9375 C 14.101562 22.0625 14.414062 22.46875 14.316406 22.84375 C 14.273438 23.003906 14.164062 23.128906 14.011719 23.214844 C 14.230469 23.4375 14.335938 23.722656 14.265625 23.996094 C 14.140625 24.460938 13.554688 24.710938 12.953125 24.554688 M 14.394531 23.257812 C 14.585938 23.152344 14.722656 22.992188 14.773438 22.789062 C 14.898438 22.324219 14.507812 21.816406 13.902344 21.65625 C 13.539062 21.5625 13.179688 21.617188 12.921875 21.777344 C 12.765625 21.566406 12.515625 21.394531 12.207031 21.316406 C 11.605469 21.15625 11.015625 21.40625 10.890625 21.875 C 10.855469 22.011719 10.863281 22.152344 10.910156 22.285156 C 10.4375 22.351562 10.054688 22.621094 9.949219 23.023438 C 9.796875 23.601562 10.28125 24.234375 11.03125 24.429688 C 11.445312 24.539062 11.851562 24.492188 12.160156 24.332031 C 12.355469 24.605469 12.675781 24.828125 13.070312 24.929688 C 13.820312 25.128906 14.558594 24.816406 14.710938 24.234375 C 14.800781 23.890625 14.667969 23.535156 14.394531 23.257812 "/>
<path style=" stroke:none;fill-rule:nonzero;fill:rgb(20%,60%,0%);fill-opacity:1;" d="M 8.941406 15.71875 C 8.5625 15.71875 8.242188 15.945312 8.242188 16.214844 C 8.242188 16.285156 8.261719 16.351562 8.304688 16.417969 L 8.441406 16.621094 L 8.210938 16.71875 C 7.925781 16.835938 7.746094 17.058594 7.746094 17.292969 C 7.746094 17.660156 8.160156 17.957031 8.664062 17.957031 C 8.941406 17.957031 9.203125 17.867188 9.382812 17.707031 L 9.511719 17.589844 L 9.648438 17.703125 C 9.824219 17.847656 10.078125 17.933594 10.34375 17.933594 C 10.851562 17.933594 11.265625 17.632812 11.265625 17.265625 C 11.265625 17.066406 11.140625 16.875 10.925781 16.746094 L 10.695312 16.609375 L 10.886719 16.425781 C 10.949219 16.363281 11.023438 16.265625 11.023438 16.136719 C 11.023438 15.867188 10.703125 15.640625 10.324219 15.640625 C 10.089844 15.640625 9.871094 15.722656 9.738281 15.867188 L 9.609375 16.003906 L 9.460938 15.886719 C 9.328125 15.78125 9.140625 15.71875 8.941406 15.71875 M 8.453125 18.710938 C 8.035156 18.710938 7.636719 18.582031 7.335938 18.347656 C 7.019531 18.101562 6.84375 17.773438 6.84375 17.417969 C 6.84375 16.996094 7.097656 16.605469 7.515625 16.367188 C 7.484375 16.269531 7.464844 16.167969 7.464844 16.066406 C 7.464844 15.472656 8.0625 14.988281 8.800781 14.988281 C 9.089844 14.988281 9.363281 15.0625 9.59375 15.195312 C 9.839844 15 10.171875 14.890625 10.527344 14.890625 C 11.265625 14.890625 11.863281 15.375 11.863281 15.96875 C 11.863281 16.144531 11.808594 16.320312 11.710938 16.472656 C 12.003906 16.714844 12.167969 17.035156 12.167969 17.378906 C 12.167969 17.734375 11.992188 18.066406 11.675781 18.3125 C 11.371094 18.546875 10.972656 18.675781 10.550781 18.675781 C 10.171875 18.675781 9.8125 18.574219 9.527344 18.382812 C 9.234375 18.589844 8.851562 18.710938 8.453125 18.710938 "/>
<path style=" stroke:none;fill-rule:nonzero;fill:rgb(44.705882%,93.72549%,26.27451%);fill-opacity:1;" d="M 10.300781 17.878906 C 9.972656 17.878906 9.679688 17.773438 9.476562 17.601562 C 9.269531 17.789062 8.964844 17.90625 8.621094 17.90625 C 8 17.90625 7.5 17.519531 7.5 17.039062 C 7.5 16.707031 7.738281 16.417969 8.089844 16.273438 C 8.03125 16.179688 7.996094 16.070312 7.996094 15.957031 C 7.996094 15.570312 8.398438 15.257812 8.898438 15.257812 C 9.152344 15.257812 9.382812 15.339844 9.546875 15.46875 C 9.710938 15.292969 9.980469 15.179688 10.28125 15.179688 C 10.78125 15.179688 11.183594 15.492188 11.183594 15.878906 C 11.183594 16.042969 11.109375 16.195312 10.988281 16.316406 C 11.253906 16.476562 11.429688 16.726562 11.429688 17.007812 C 11.429688 17.488281 10.921875 17.878906 10.300781 17.878906 M 11.367188 16.257812 C 11.523438 16.109375 11.617188 15.917969 11.617188 15.710938 C 11.617188 15.230469 11.109375 14.839844 10.484375 14.839844 C 10.109375 14.839844 9.773438 14.980469 9.566406 15.203125 C 9.363281 15.039062 9.074219 14.9375 8.757812 14.9375 C 8.132812 14.9375 7.628906 15.328125 7.628906 15.8125 C 7.628906 15.953125 7.671875 16.085938 7.746094 16.203125 C 7.308594 16.386719 7.007812 16.746094 7.007812 17.160156 C 7.007812 17.761719 7.636719 18.25 8.414062 18.25 C 8.839844 18.25 9.222656 18.101562 9.476562 17.867188 C 9.734375 18.082031 10.101562 18.214844 10.507812 18.214844 C 11.289062 18.214844 11.917969 17.726562 11.917969 17.125 C 11.917969 16.773438 11.703125 16.457031 11.367188 16.257812 "/>
<path style=" stroke:none;fill-rule:nonzero;fill:rgb(20%,60%,0%);fill-opacity:1;" d="M 25.121094 21.648438 C 24.742188 21.648438 24.421875 21.875 24.421875 22.140625 C 24.421875 22.210938 24.441406 22.28125 24.484375 22.34375 L 24.617188 22.550781 L 24.390625 22.644531 C 24.105469 22.765625 23.925781 22.988281 23.925781 23.222656 C 23.925781 23.589844 24.339844 23.886719 24.84375 23.886719 C 25.121094 23.886719 25.382812 23.796875 25.558594 23.636719 L 25.691406 23.515625 L 25.828125 23.628906 C 26.003906 23.777344 26.257812 23.859375 26.523438 23.859375 C 27.03125 23.859375 27.445312 23.558594 27.445312 23.191406 C 27.445312 22.992188 27.320312 22.804688 27.105469 22.675781 L 26.875 22.539062 L 27.066406 22.351562 C 27.128906 22.292969 27.203125 22.195312 27.203125 22.0625 C 27.203125 21.796875 26.882812 21.566406 26.503906 21.566406 C 26.269531 21.566406 26.050781 21.652344 25.917969 21.792969 L 25.789062 21.933594 L 25.640625 21.816406 C 25.507812 21.707031 25.316406 21.648438 25.121094 21.648438 M 24.632812 24.636719 C 24.214844 24.636719 23.816406 24.507812 23.515625 24.277344 C 23.199219 24.03125 23.023438 23.703125 23.023438 23.347656 C 23.023438 22.921875 23.277344 22.535156 23.695312 22.296875 C 23.664062 22.199219 23.644531 22.097656 23.644531 21.996094 C 23.644531 21.402344 24.242188 20.917969 24.980469 20.917969 C 25.269531 20.917969 25.542969 20.988281 25.773438 21.125 C 26.019531 20.929688 26.351562 20.816406 26.707031 20.816406 C 27.445312 20.816406 28.042969 21.300781 28.042969 21.898438 C 28.042969 22.074219 27.988281 22.246094 27.886719 22.402344 C 28.183594 22.640625 28.347656 22.964844 28.347656 23.308594 C 28.347656 23.664062 28.171875 23.996094 27.855469 24.242188 C 27.550781 24.476562 27.152344 24.605469 26.730469 24.605469 C 26.351562 24.605469 25.992188 24.5 25.707031 24.3125 C 25.414062 24.519531 25.03125 24.636719 24.632812 24.636719 "/>
<path style=" stroke:none;fill-rule:nonzero;fill:rgb(44.705882%,93.72549%,26.27451%);fill-opacity:1;" d="M 26.480469 23.808594 C 26.152344 23.808594 25.859375 23.703125 25.65625 23.53125 C 25.449219 23.71875 25.144531 23.835938 24.800781 23.835938 C 24.179688 23.835938 23.679688 23.445312 23.679688 22.964844 C 23.679688 22.636719 23.917969 22.347656 24.269531 22.199219 C 24.207031 22.105469 24.175781 22 24.175781 21.886719 C 24.175781 21.5 24.578125 21.1875 25.078125 21.1875 C 25.332031 21.1875 25.5625 21.269531 25.726562 21.398438 C 25.890625 21.222656 26.15625 21.109375 26.460938 21.109375 C 26.960938 21.109375 27.363281 21.421875 27.363281 21.808594 C 27.363281 21.972656 27.289062 22.125 27.167969 22.246094 C 27.433594 22.402344 27.609375 22.652344 27.609375 22.9375 C 27.609375 23.417969 27.101562 23.808594 26.480469 23.808594 M 27.546875 22.1875 C 27.703125 22.039062 27.796875 21.847656 27.796875 21.640625 C 27.796875 21.15625 27.289062 20.765625 26.664062 20.765625 C 26.285156 20.765625 25.953125 20.910156 25.746094 21.128906 C 25.542969 20.96875 25.253906 20.867188 24.9375 20.867188 C 24.3125 20.867188 23.808594 21.257812 23.808594 21.738281 C 23.808594 21.882812 23.851562 22.015625 23.925781 22.132812 C 23.488281 22.316406 23.1875 22.675781 23.1875 23.089844 C 23.1875 23.691406 23.816406 24.175781 24.589844 24.175781 C 25.019531 24.175781 25.398438 24.027344 25.65625 23.796875 C 25.914062 24.011719 26.28125 24.144531 26.6875 24.144531 C 27.46875 24.144531 28.097656 23.65625 28.097656 23.050781 C 28.097656 22.699219 27.882812 22.386719 27.546875 22.1875 "/>
<path style=" stroke:none;fill-rule:nonzero;fill:rgb(84.705882%,63.529412%,20.784314%);fill-opacity:1;" d="M 29.910156 26.441406 L 30.125 25.601562 C 29.382812 25.363281 28.949219 24.96875 28.949219 24.523438 C 28.949219 24.144531 29.253906 23.804688 29.808594 23.5625 C 30.304688 23.34375 30.960938 23.222656 31.65625 23.222656 C 32.347656 23.222656 33.003906 23.34375 33.5 23.5625 C 34.054688 23.804688 34.359375 24.144531 34.359375 24.523438 C 34.359375 24.980469 33.910156 25.378906 33.144531 25.613281 L 33.421875 26.441406 Z M 29.910156 26.441406 "/>
<path style=" stroke:none;fill-rule:nonzero;fill:rgb(95.686275%,74.117647%,25.882353%);fill-opacity:1;" d="M 34.09375 24.292969 C 34.09375 23.703125 33 23.222656 31.65625 23.222656 C 30.308594 23.222656 29.214844 23.703125 29.214844 24.292969 C 29.214844 24.691406 29.707031 25.035156 30.4375 25.222656 L 30.242188 25.984375 L 33.066406 25.984375 L 32.816406 25.234375 C 33.578125 25.054688 34.09375 24.699219 34.09375 24.292969 "/>
<path style=" stroke:none;fill-rule:nonzero;fill:rgb(81.960784%,60.392157%,17.254902%);fill-opacity:1;" d="M 30.214844 24.929688 C 30.394531 24.792969 30.601562 24.722656 30.828125 24.710938 C 30.984375 24.707031 30.988281 24.460938 30.828125 24.464844 C 30.5625 24.476562 30.304688 24.554688 30.089844 24.714844 C 29.964844 24.8125 30.089844 25.027344 30.214844 24.929688 "/>
<path style=" stroke:none;fill-rule:nonzero;fill:rgb(81.960784%,60.392157%,17.254902%);fill-opacity:1;" d="M 32.160156 24.675781 C 32.472656 24.65625 32.769531 24.722656 33.035156 24.894531 C 33.167969 24.980469 33.292969 24.765625 33.160156 24.679688 C 32.859375 24.488281 32.511719 24.40625 32.160156 24.429688 C 32 24.441406 32 24.6875 32.160156 24.675781 "/>
<path style=" stroke:none;fill-rule:nonzero;fill:rgb(84.705882%,63.529412%,20.784314%);fill-opacity:1;" d="M 14.839844 16.425781 L 15.054688 15.589844 C 14.3125 15.351562 13.878906 14.957031 13.878906 14.507812 C 13.878906 14.132812 14.183594 13.792969 14.738281 13.546875 C 15.234375 13.332031 15.890625 13.210938 16.582031 13.210938 C 17.277344 13.210938 17.933594 13.332031 18.429688 13.546875 C 18.984375 13.792969 19.289062 14.132812 19.289062 14.507812 C 19.289062 14.96875 18.839844 15.367188 18.074219 15.601562 L 18.351562 16.425781 Z M 14.839844 16.425781 "/>
<path style=" stroke:none;fill-rule:nonzero;fill:rgb(95.686275%,74.117647%,25.882353%);fill-opacity:1;" d="M 19.023438 14.28125 C 19.023438 13.691406 17.929688 13.210938 16.582031 13.210938 C 15.238281 13.210938 14.144531 13.691406 14.144531 14.28125 C 14.144531 14.675781 14.636719 15.023438 15.367188 15.207031 L 15.171875 15.96875 L 17.996094 15.96875 L 17.746094 15.222656 C 18.507812 15.039062 19.023438 14.6875 19.023438 14.28125 "/>
<path style=" stroke:none;fill-rule:nonzero;fill:rgb(81.960784%,60.392157%,17.254902%);fill-opacity:1;" d="M 15.144531 14.917969 C 15.324219 14.78125 15.53125 14.707031 15.757812 14.699219 C 15.914062 14.691406 15.914062 14.445312 15.757812 14.453125 C 15.488281 14.460938 15.234375 14.542969 15.019531 14.703125 C 14.894531 14.796875 15.019531 15.011719 15.144531 14.917969 "/>
<path style=" stroke:none;fill-rule:nonzero;fill:rgb(81.960784%,60.392157%,17.254902%);fill-opacity:1;" d="M 17.089844 14.664062 C 17.402344 14.644531 17.699219 14.710938 17.964844 14.882812 C 18.097656 14.96875 18.222656 14.753906 18.089844 14.667969 C 17.789062 14.476562 17.441406 14.394531 17.089844 14.417969 C 16.929688 14.429688 16.929688 14.675781 17.089844 14.664062 "/>
<path style=" stroke:none;fill-rule:nonzero;fill:rgb(84.705882%,63.529412%,20.784314%);fill-opacity:1;" d="M 17.152344 25.945312 L 17.296875 25.09375 C 16.539062 24.917969 16.074219 24.558594 16.039062 24.113281 C 16.007812 23.738281 16.28125 23.371094 16.816406 23.085938 C 17.292969 22.828125 17.9375 22.652344 18.628906 22.59375 C 19.316406 22.539062 19.980469 22.605469 20.496094 22.78125 C 21.066406 22.976562 21.398438 23.292969 21.429688 23.667969 C 21.46875 24.125 21.054688 24.558594 20.308594 24.855469 L 20.652344 25.65625 Z M 17.152344 25.945312 "/>
<path style=" stroke:none;fill-rule:nonzero;fill:rgb(95.686275%,74.117647%,25.882353%);fill-opacity:1;" d="M 21.144531 23.460938 C 21.097656 22.871094 19.96875 22.484375 18.628906 22.59375 C 17.285156 22.707031 16.234375 23.273438 16.285156 23.863281 C 16.316406 24.257812 16.835938 24.5625 17.578125 24.6875 L 17.445312 25.460938 L 20.261719 25.230469 L 19.953125 24.503906 C 20.695312 24.261719 21.179688 23.867188 21.144531 23.460938 "/>
<path style=" stroke:none;fill-rule:nonzero;fill:rgb(81.960784%,60.392157%,17.254902%);fill-opacity:1;" d="M 17.347656 24.402344 C 17.507812 24.257812 17.703125 24.171875 17.914062 24.148438 C 18.070312 24.128906 18.074219 23.882812 17.914062 23.902344 C 17.636719 23.933594 17.386719 24.039062 17.175781 24.226562 C 17.054688 24.332031 17.230469 24.507812 17.347656 24.402344 "/>
<path style=" stroke:none;fill-rule:nonzero;fill:rgb(81.960784%,60.392157%,17.254902%);fill-opacity:1;" d="M 19.273438 24 C 19.566406 23.957031 19.867188 24.003906 20.132812 24.144531 C 20.269531 24.21875 20.394531 24.003906 20.253906 23.929688 C 19.925781 23.757812 19.570312 23.707031 19.207031 23.761719 C 19.050781 23.785156 19.117188 24.023438 19.273438 24 "/>
<path style=" stroke:none;fill-rule:nonzero;fill:rgb(77.647059%,3.529412%,24.705882%);fill-opacity:1;" d="M 26.375 29.816406 C 25.644531 29.816406 24.957031 29.636719 24.433594 29.3125 C 23.878906 28.964844 23.570312 28.488281 23.570312 27.976562 C 23.570312 27.460938 23.878906 26.988281 24.433594 26.640625 C 24.957031 26.3125 25.644531 26.132812 26.375 26.132812 C 27.105469 26.132812 27.796875 26.3125 28.316406 26.640625 C 28.875 26.988281 29.179688 27.460938 29.179688 27.976562 C 29.179688 28.488281 28.875 28.964844 28.316406 29.3125 C 27.796875 29.636719 27.105469 29.816406 26.375 29.816406 "/>
<path style=" stroke:none;fill-rule:nonzero;fill:rgb(91.764706%,6.666667%,27.058824%);fill-opacity:1;" d="M 28.945312 27.714844 C 28.945312 28.601562 27.792969 29.320312 26.375 29.320312 C 24.957031 29.320312 23.808594 28.601562 23.808594 27.714844 C 23.808594 26.828125 24.957031 26.109375 26.375 26.109375 C 27.792969 26.109375 28.945312 26.828125 28.945312 27.714844 "/>
<path style=" stroke:none;fill-rule:nonzero;fill:rgb(97.647059%,96.862745%,97.254902%);fill-opacity:1;" d="M 26.738281 27.410156 C 26.738281 27.601562 26.488281 27.757812 26.179688 27.757812 C 25.871094 27.757812 25.617188 27.601562 25.617188 27.410156 C 25.617188 27.214844 25.871094 27.058594 26.179688 27.058594 C 26.488281 27.058594 26.738281 27.214844 26.738281 27.410156 "/>
<path style=" stroke:none;fill-rule:nonzero;fill:rgb(97.647059%,96.862745%,97.254902%);fill-opacity:1;" d="M 26.882812 28.59375 C 26.882812 28.835938 26.566406 29.03125 26.179688 29.03125 C 25.789062 29.03125 25.476562 28.835938 25.476562 28.59375 C 25.476562 28.351562 25.789062 28.15625 26.179688 28.15625 C 26.566406 28.15625 26.882812 28.351562 26.882812 28.59375 "/>
<path style=" stroke:none;fill-rule:nonzero;fill:rgb(97.647059%,96.862745%,97.254902%);fill-opacity:1;" d="M 27.988281 28.542969 C 27.988281 28.691406 27.796875 28.808594 27.5625 28.808594 C 27.324219 28.808594 27.136719 28.691406 27.136719 28.542969 C 27.136719 28.398438 27.324219 28.277344 27.5625 28.277344 C 27.796875 28.277344 27.988281 28.398438 27.988281 28.542969 "/>
<path style=" stroke:none;fill-rule:nonzero;fill:rgb(97.647059%,96.862745%,97.254902%);fill-opacity:1;" d="M 25.921875 26.570312 C 25.921875 26.683594 25.769531 26.777344 25.585938 26.777344 C 25.402344 26.777344 25.25 26.683594 25.25 26.570312 C 25.25 26.453125 25.402344 26.359375 25.585938 26.359375 C 25.769531 26.359375 25.921875 26.453125 25.921875 26.570312 "/>
<path style=" stroke:none;fill-rule:nonzero;fill:rgb(97.647059%,96.862745%,97.254902%);fill-opacity:1;" d="M 28.640625 27.65625 C 28.640625 27.804688 28.445312 27.929688 28.203125 27.929688 C 27.960938 27.929688 27.765625 27.804688 27.765625 27.65625 C 27.765625 27.503906 27.960938 27.382812 28.203125 27.382812 C 28.445312 27.382812 28.640625 27.503906 28.640625 27.65625 "/>
<path style=" stroke:none;fill-rule:nonzero;fill:rgb(97.647059%,96.862745%,97.254902%);fill-opacity:1;" d="M 25.277344 28.15625 C 25.277344 28.328125 25.058594 28.464844 24.785156 28.464844 C 24.515625 28.464844 24.292969 28.328125 24.292969 28.15625 C 24.292969 27.984375 24.515625 27.847656 24.785156 27.847656 C 25.058594 27.847656 25.277344 27.984375 25.277344 28.15625 "/>
<path style=" stroke:none;fill-rule:nonzero;fill:rgb(97.647059%,96.862745%,97.254902%);fill-opacity:1;" d="M 28.136719 26.765625 C 28.136719 26.980469 27.855469 27.15625 27.511719 27.15625 C 27.167969 27.15625 26.886719 26.980469 26.886719 26.765625 C 26.886719 26.550781 27.167969 26.375 27.511719 26.375 C 27.855469 26.375 28.136719 26.550781 28.136719 26.765625 "/>
<path style=" stroke:none;fill-rule:nonzero;fill:rgb(77.647059%,3.529412%,24.705882%);fill-opacity:1;" d="M 13.015625 30.152344 C 12.285156 30.152344 11.597656 29.972656 11.074219 29.644531 C 10.519531 29.296875 10.210938 28.824219 10.210938 28.308594 C 10.210938 27.796875 10.519531 27.320312 11.074219 26.972656 C 11.597656 26.648438 12.285156 26.46875 13.015625 26.46875 C 13.746094 26.46875 14.4375 26.648438 14.957031 26.972656 C 15.515625 27.320312 15.820312 27.796875 15.820312 28.308594 C 15.820312 28.824219 15.515625 29.296875 14.957031 29.644531 C 14.4375 29.972656 13.746094 30.152344 13.015625 30.152344 "/>
<path style=" stroke:none;fill-rule:nonzero;fill:rgb(91.764706%,6.666667%,27.058824%);fill-opacity:1;" d="M 15.585938 28.050781 C 15.585938 28.9375 14.433594 29.652344 13.015625 29.652344 C 11.597656 29.652344 10.449219 28.9375 10.449219 28.050781 C 10.449219 27.164062 11.597656 26.445312 13.015625 26.445312 C 14.433594 26.445312 15.585938 27.164062 15.585938 28.050781 "/>
<path style=" stroke:none;fill-rule:nonzero;fill:rgb(97.647059%,96.862745%,97.254902%);fill-opacity:1;" d="M 13.378906 27.742188 C 13.378906 27.933594 13.128906 28.09375 12.820312 28.09375 C 12.511719 28.09375 12.257812 27.933594 12.257812 27.742188 C 12.257812 27.546875 12.511719 27.390625 12.820312 27.390625 C 13.128906 27.390625 13.378906 27.546875 13.378906 27.742188 "/>
<path style=" stroke:none;fill-rule:nonzero;fill:rgb(97.647059%,96.862745%,97.254902%);fill-opacity:1;" d="M 13.523438 28.925781 C 13.523438 29.167969 13.207031 29.367188 12.820312 29.367188 C 12.429688 29.367188 12.117188 29.167969 12.117188 28.925781 C 12.117188 28.683594 12.429688 28.488281 12.820312 28.488281 C 13.207031 28.488281 13.523438 28.683594 13.523438 28.925781 "/>
<path style=" stroke:none;fill-rule:nonzero;fill:rgb(97.647059%,96.862745%,97.254902%);fill-opacity:1;" d="M 14.628906 28.878906 C 14.628906 29.023438 14.4375 29.144531 14.203125 29.144531 C 13.96875 29.144531 13.777344 29.023438 13.777344 28.878906 C 13.777344 28.730469 13.96875 28.613281 14.203125 28.613281 C 14.4375 28.613281 14.628906 28.730469 14.628906 28.878906 "/>
<path style=" stroke:none;fill-rule:nonzero;fill:rgb(97.647059%,96.862745%,97.254902%);fill-opacity:1;" d="M 12.5625 26.902344 C 12.5625 27.019531 12.410156 27.113281 12.226562 27.113281 C 12.042969 27.113281 11.890625 27.019531 11.890625 26.902344 C 11.890625 26.789062 12.042969 26.695312 12.226562 26.695312 C 12.410156 26.695312 12.5625 26.789062 12.5625 26.902344 "/>
<path style=" stroke:none;fill-rule:nonzero;fill:rgb(97.647059%,96.862745%,97.254902%);fill-opacity:1;" d="M 15.28125 27.988281 C 15.28125 28.140625 15.085938 28.261719 14.84375 28.261719 C 14.601562 28.261719 14.40625 28.140625 14.40625 27.988281 C 14.40625 27.835938 14.601562 27.714844 14.84375 27.714844 C 15.085938 27.714844 15.28125 27.835938 15.28125 27.988281 "/>
<path style=" stroke:none;fill-rule:nonzero;fill:rgb(97.647059%,96.862745%,97.254902%);fill-opacity:1;" d="M 11.917969 28.488281 C 11.917969 28.660156 11.699219 28.796875 11.425781 28.796875 C 11.15625 28.796875 10.933594 28.660156 10.933594 28.488281 C 10.933594 28.320312 11.15625 28.183594 11.425781 28.183594 C 11.699219 28.183594 11.917969 28.320312 11.917969 28.488281 "/>
<path style=" stroke:none;fill-rule:nonzero;fill:rgb(97.647059%,96.862745%,97.254902%);fill-opacity:1;" d="M 14.777344 27.101562 C 14.777344 27.316406 14.496094 27.488281 14.152344 27.488281 C 13.808594 27.488281 13.53125 27.316406 13.53125 27.101562 C 13.53125 26.886719 13.808594 26.710938 14.152344 26.710938 C 14.496094 26.710938 14.777344 26.886719 14.777344 27.101562 "/>
<path style=" stroke:none;fill-rule:nonzero;fill:rgb(77.647059%,3.529412%,24.705882%);fill-opacity:1;" d="M 16.1875 21.382812 C 15.457031 21.382812 14.769531 21.203125 14.246094 20.875 C 13.691406 20.527344 13.382812 20.054688 13.382812 19.539062 C 13.382812 19.027344 13.691406 18.554688 14.246094 18.207031 C 14.769531 17.878906 15.457031 17.699219 16.1875 17.699219 C 16.917969 17.699219 17.605469 17.878906 18.128906 18.207031 C 18.6875 18.554688 18.992188 19.027344 18.992188 19.539062 C 18.992188 20.054688 18.6875 20.527344 18.128906 20.875 C 17.605469 21.203125 16.917969 21.382812 16.1875 21.382812 "/>
<path style=" stroke:none;fill-rule:nonzero;fill:rgb(91.764706%,6.666667%,27.058824%);fill-opacity:1;" d="M 18.753906 19.28125 C 18.753906 20.167969 17.605469 20.886719 16.1875 20.886719 C 14.769531 20.886719 13.621094 20.167969 13.621094 19.28125 C 13.621094 18.394531 14.769531 17.675781 16.1875 17.675781 C 17.605469 17.675781 18.753906 18.394531 18.753906 19.28125 "/>
<path style=" stroke:none;fill-rule:nonzero;fill:rgb(97.647059%,96.862745%,97.254902%);fill-opacity:1;" d="M 16.550781 18.972656 C 16.550781 19.167969 16.300781 19.324219 15.992188 19.324219 C 15.679688 19.324219 15.429688 19.167969 15.429688 18.972656 C 15.429688 18.78125 15.679688 18.621094 15.992188 18.621094 C 16.300781 18.621094 16.550781 18.78125 16.550781 18.972656 "/>
<path style=" stroke:none;fill-rule:nonzero;fill:rgb(97.647059%,96.862745%,97.254902%);fill-opacity:1;" d="M 16.691406 20.160156 C 16.691406 20.402344 16.378906 20.597656 15.992188 20.597656 C 15.601562 20.597656 15.289062 20.402344 15.289062 20.160156 C 15.289062 19.914062 15.601562 19.71875 15.992188 19.71875 C 16.378906 19.71875 16.691406 19.914062 16.691406 20.160156 "/>
<path style=" stroke:none;fill-rule:nonzero;fill:rgb(97.647059%,96.862745%,97.254902%);fill-opacity:1;" d="M 17.796875 20.109375 C 17.796875 20.253906 17.609375 20.375 17.371094 20.375 C 17.136719 20.375 16.949219 20.253906 16.949219 20.109375 C 16.949219 19.960938 17.136719 19.84375 17.371094 19.84375 C 17.609375 19.84375 17.796875 19.960938 17.796875 20.109375 "/>
<path style=" stroke:none;fill-rule:nonzero;fill:rgb(97.647059%,96.862745%,97.254902%);fill-opacity:1;" d="M 15.730469 18.132812 C 15.730469 18.25 15.582031 18.34375 15.398438 18.34375 C 15.214844 18.34375 15.0625 18.25 15.0625 18.132812 C 15.0625 18.019531 15.214844 17.925781 15.398438 17.925781 C 15.582031 17.925781 15.730469 18.019531 15.730469 18.132812 "/>
<path style=" stroke:none;fill-rule:nonzero;fill:rgb(97.647059%,96.862745%,97.254902%);fill-opacity:1;" d="M 18.453125 19.21875 C 18.453125 19.371094 18.257812 19.492188 18.015625 19.492188 C 17.773438 19.492188 17.578125 19.371094 17.578125 19.21875 C 17.578125 19.070312 17.773438 18.945312 18.015625 18.945312 C 18.257812 18.945312 18.453125 19.070312 18.453125 19.21875 "/>
<path style=" stroke:none;fill-rule:nonzero;fill:rgb(97.647059%,96.862745%,97.254902%);fill-opacity:1;" d="M 15.089844 19.722656 C 15.089844 19.890625 14.871094 20.027344 14.597656 20.027344 C 14.324219 20.027344 14.105469 19.890625 14.105469 19.722656 C 14.105469 19.550781 14.324219 19.414062 14.597656 19.414062 C 14.871094 19.414062 15.089844 19.550781 15.089844 19.722656 "/>
<path style=" stroke:none;fill-rule:nonzero;fill:rgb(97.647059%,96.862745%,97.254902%);fill-opacity:1;" d="M 17.945312 18.332031 C 17.945312 18.546875 17.667969 18.71875 17.324219 18.71875 C 16.980469 18.71875 16.699219 18.546875 16.699219 18.332031 C 16.699219 18.117188 16.980469 17.941406 17.324219 17.941406 C 17.667969 17.941406 17.945312 18.117188 17.945312 18.332031 "/>
<path style=" stroke:none;fill-rule:nonzero;fill:rgb(77.647059%,3.529412%,24.705882%);fill-opacity:1;" d="M 31.714844 21.433594 C 30.988281 21.433594 30.296875 21.253906 29.773438 20.929688 C 29.21875 20.582031 28.910156 20.105469 28.910156 19.59375 C 28.910156 19.082031 29.21875 18.605469 29.773438 18.257812 C 30.296875 17.929688 30.988281 17.75 31.714844 17.75 C 32.445312 17.75 33.136719 17.929688 33.65625 18.257812 C 34.214844 18.605469 34.519531 19.082031 34.519531 19.59375 C 34.519531 20.105469 34.214844 20.582031 33.65625 20.929688 C 33.136719 21.253906 32.445312 21.433594 31.714844 21.433594 "/>
<path style=" stroke:none;fill-rule:nonzero;fill:rgb(91.764706%,6.666667%,27.058824%);fill-opacity:1;" d="M 34.285156 19.332031 C 34.285156 20.21875 33.132812 20.9375 31.714844 20.9375 C 30.296875 20.9375 29.148438 20.21875 29.148438 19.332031 C 29.148438 18.445312 30.296875 17.726562 31.714844 17.726562 C 33.132812 17.726562 34.285156 18.445312 34.285156 19.332031 "/>
<path style=" stroke:none;fill-rule:nonzero;fill:rgb(97.647059%,96.862745%,97.254902%);fill-opacity:1;" d="M 32.078125 19.027344 C 32.078125 19.21875 31.828125 19.375 31.519531 19.375 C 31.210938 19.375 30.957031 19.21875 30.957031 19.027344 C 30.957031 18.832031 31.210938 18.675781 31.519531 18.675781 C 31.828125 18.675781 32.078125 18.832031 32.078125 19.027344 "/>
<path style=" stroke:none;fill-rule:nonzero;fill:rgb(97.647059%,96.862745%,97.254902%);fill-opacity:1;" d="M 32.222656 20.210938 C 32.222656 20.453125 31.90625 20.648438 31.519531 20.648438 C 31.132812 20.648438 30.816406 20.453125 30.816406 20.210938 C 30.816406 19.96875 31.132812 19.773438 31.519531 19.773438 C 31.90625 19.773438 32.222656 19.96875 32.222656 20.210938 "/>
<path style=" stroke:none;fill-rule:nonzero;fill:rgb(97.647059%,96.862745%,97.254902%);fill-opacity:1;" d="M 33.328125 20.160156 C 33.328125 20.308594 33.136719 20.425781 32.902344 20.425781 C 32.667969 20.425781 32.476562 20.308594 32.476562 20.160156 C 32.476562 20.015625 32.667969 19.894531 32.902344 19.894531 C 33.136719 19.894531 33.328125 20.015625 33.328125 20.160156 "/>
<path style=" stroke:none;fill-rule:nonzero;fill:rgb(97.647059%,96.862745%,97.254902%);fill-opacity:1;" d="M 31.261719 18.1875 C 31.261719 18.300781 31.109375 18.394531 30.925781 18.394531 C 30.742188 18.394531 30.59375 18.300781 30.59375 18.1875 C 30.59375 18.070312 30.742188 17.976562 30.925781 17.976562 C 31.109375 17.976562 31.261719 18.070312 31.261719 18.1875 "/>
<path style=" stroke:none;fill-rule:nonzero;fill:rgb(97.647059%,96.862745%,97.254902%);fill-opacity:1;" d="M 33.980469 19.273438 C 33.980469 19.421875 33.785156 19.546875 33.542969 19.546875 C 33.300781 19.546875 33.105469 19.421875 33.105469 19.273438 C 33.105469 19.121094 33.300781 19 33.542969 19 C 33.785156 19 33.980469 19.121094 33.980469 19.273438 "/>
<path style=" stroke:none;fill-rule:nonzero;fill:rgb(97.647059%,96.862745%,97.254902%);fill-opacity:1;" d="M 30.621094 19.773438 C 30.621094 19.945312 30.398438 20.082031 30.125 20.082031 C 29.855469 20.082031 29.632812 19.945312 29.632812 19.773438 C 29.632812 19.605469 29.855469 19.464844 30.125 19.464844 C 30.398438 19.464844 30.621094 19.605469 30.621094 19.773438 "/>
<path style=" stroke:none;fill-rule:nonzero;fill:rgb(97.647059%,96.862745%,97.254902%);fill-opacity:1;" d="M 33.476562 18.382812 C 33.476562 18.597656 33.195312 18.773438 32.851562 18.773438 C 32.507812 18.773438 32.230469 18.597656 32.230469 18.382812 C 32.230469 18.167969 32.507812 17.992188 32.851562 17.992188 C 33.195312 17.992188 33.476562 18.167969 33.476562 18.382812 "/>
</g>
</svg>
