<svg width="309.06" height="20.13" viewBox="0 0 309.06 20.13" xmlns="http://www.w3.org/2000/svg"><g id="svgGroup" stroke-linecap="round" fill-rule="evenodd" font-size="9pt" stroke="#e82a51" stroke-width="0.25mm" fill="#e82a51" style="stroke:#e82a51;stroke-width:0.25mm;fill:#e82a51"><path d="M 127.8 16.02 L 127.86 4.11 Q 127.86 2.7 127.38 2.31 A 2.029 2.029 0 0 0 126.993 2.068 Q 126.61 1.88 126.041 1.751 A 7.423 7.423 0 0 0 125.85 1.71 A 7.523 7.523 0 0 1 125.656 1.669 Q 125.365 1.602 125.25 1.545 Q 125.11 1.475 125.101 1.078 A 2.481 2.481 0 0 1 125.1 1.02 A 1.077 1.077 0 0 1 125.116 0.826 Q 125.135 0.725 125.175 0.652 A 0.356 0.356 0 0 1 125.46 0.465 A 5.398 5.398 0 0 1 125.798 0.434 Q 125.972 0.424 126.167 0.421 A 9.708 9.708 0 0 1 126.3 0.42 Q 127.403 0.42 128.227 0.536 A 7.009 7.009 0 0 1 129.015 0.69 Q 130.05 0.96 130.845 1.65 Q 131.423 2.151 132.071 2.954 A 18.469 18.469 0 0 1 132.57 3.6 L 140.79 14.4 L 140.88 14.4 L 140.82 4.11 A 6.556 6.556 0 0 0 140.751 3.149 A 5.954 5.954 0 0 0 140.73 3.015 Q 140.64 2.49 140.265 2.145 Q 139.935 1.841 139.151 1.805 A 4.783 4.783 0 0 0 138.93 1.8 A 2.527 2.527 0 0 1 138.718 1.792 Q 138.551 1.778 138.42 1.74 Q 138.213 1.681 138.152 1.183 A 2.582 2.582 0 0 1 138.15 1.17 Q 138.15 0.93 138.285 0.72 A 0.434 0.434 0 0 1 138.599 0.516 A 0.612 0.612 0 0 1 138.69 0.51 A 220.707 220.707 0 0 0 139.004 0.524 Q 139.451 0.544 139.755 0.555 L 140.565 0.585 Q 140.965 0.6 141.556 0.6 A 50.69 50.69 0 0 0 141.57 0.6 A 41.946 41.946 0 0 0 141.857 0.599 Q 142.268 0.596 142.56 0.585 Q 142.95 0.57 143.355 0.555 A 60.246 60.246 0 0 0 143.572 0.547 Q 143.869 0.534 144.26 0.516 A 175.724 175.724 0 0 0 144.39 0.51 Q 144.69 0.51 144.81 0.72 Q 144.93 0.93 144.93 1.17 Q 144.903 1.621 144.748 1.72 A 0.176 0.176 0 0 1 144.705 1.74 A 1.131 1.131 0 0 1 144.555 1.774 Q 144.397 1.8 144.18 1.8 A 3.955 3.955 0 0 0 143.724 1.824 Q 143.254 1.879 142.976 2.057 A 0.952 0.952 0 0 0 142.86 2.145 Q 142.47 2.49 142.395 3.015 A 12.116 12.116 0 0 0 142.3 3.933 A 13.539 13.539 0 0 0 142.29 4.11 L 142.23 19.23 A 0.369 0.369 0 0 1 142.173 19.391 Q 142.123 19.467 142.03 19.512 A 0.538 0.538 0 0 1 141.945 19.545 A 2.034 2.034 0 0 1 141.73 19.596 Q 141.598 19.62 141.48 19.62 A 1.328 1.328 0 0 1 141.12 19.574 A 0.952 0.952 0 0 1 140.61 19.23 L 129.3 4.11 L 129.21 4.11 L 129.27 16.02 A 12.541 12.541 0 0 0 129.353 16.95 A 11.239 11.239 0 0 0 129.375 17.115 Q 129.45 17.64 129.84 17.985 Q 130.194 18.298 130.995 18.327 A 4.627 4.627 0 0 0 131.16 18.33 A 2.994 2.994 0 0 1 131.373 18.337 Q 131.476 18.344 131.564 18.36 A 1.285 1.285 0 0 1 131.7 18.39 A 0.227 0.227 0 0 1 131.827 18.49 Q 131.919 18.628 131.939 18.947 A 2.483 2.483 0 0 1 131.94 18.96 Q 131.94 19.2 131.805 19.41 A 0.434 0.434 0 0 1 131.491 19.614 A 0.612 0.612 0 0 1 131.4 19.62 Q 130.967 19.599 130.626 19.586 A 56.088 56.088 0 0 0 130.335 19.575 Q 129.9 19.56 129.495 19.545 Q 129.095 19.53 128.504 19.53 A 50.69 50.69 0 0 0 128.49 19.53 A 41.533 41.533 0 0 0 128.204 19.531 Q 127.796 19.534 127.515 19.545 Q 127.14 19.56 126.75 19.575 A 84.58 84.58 0 0 0 126.538 19.583 Q 126.302 19.593 125.995 19.607 A 276.274 276.274 0 0 0 125.7 19.62 Q 125.4 19.62 125.28 19.41 Q 125.16 19.2 125.16 18.96 A 1.934 1.934 0 0 1 125.179 18.773 Q 125.232 18.438 125.4 18.39 Q 125.572 18.341 125.805 18.332 A 2.764 2.764 0 0 1 125.91 18.33 A 4.224 4.224 0 0 0 126.353 18.308 Q 126.964 18.244 127.245 17.985 Q 127.62 17.64 127.71 17.115 A 6.39 6.39 0 0 0 127.799 16.162 A 7.116 7.116 0 0 0 127.8 16.02 Z M 270.75 16.02 L 270.81 4.11 Q 270.81 2.7 270.33 2.31 A 2.029 2.029 0 0 0 269.943 2.068 Q 269.56 1.88 268.991 1.751 A 7.423 7.423 0 0 0 268.8 1.71 A 7.523 7.523 0 0 1 268.606 1.669 Q 268.315 1.602 268.2 1.545 Q 268.06 1.475 268.051 1.078 A 2.481 2.481 0 0 1 268.05 1.02 A 1.077 1.077 0 0 1 268.066 0.826 Q 268.085 0.725 268.125 0.652 A 0.356 0.356 0 0 1 268.41 0.465 A 5.398 5.398 0 0 1 268.748 0.434 Q 268.922 0.424 269.117 0.421 A 9.708 9.708 0 0 1 269.25 0.42 Q 270.353 0.42 271.177 0.536 A 7.009 7.009 0 0 1 271.965 0.69 Q 273 0.96 273.795 1.65 Q 274.373 2.151 275.021 2.954 A 18.469 18.469 0 0 1 275.52 3.6 L 283.74 14.4 L 283.83 14.4 L 283.77 4.11 A 6.556 6.556 0 0 0 283.701 3.149 A 5.954 5.954 0 0 0 283.68 3.015 Q 283.59 2.49 283.215 2.145 Q 282.885 1.841 282.101 1.805 A 4.783 4.783 0 0 0 281.88 1.8 A 2.527 2.527 0 0 1 281.668 1.792 Q 281.501 1.778 281.37 1.74 Q 281.163 1.681 281.102 1.183 A 2.582 2.582 0 0 1 281.1 1.17 Q 281.1 0.93 281.235 0.72 A 0.434 0.434 0 0 1 281.549 0.516 A 0.612 0.612 0 0 1 281.64 0.51 A 220.707 220.707 0 0 0 281.954 0.524 Q 282.401 0.544 282.705 0.555 L 283.515 0.585 Q 283.915 0.6 284.506 0.6 A 50.69 50.69 0 0 0 284.52 0.6 A 41.946 41.946 0 0 0 284.807 0.599 Q 285.218 0.596 285.51 0.585 Q 285.9 0.57 286.305 0.555 A 60.246 60.246 0 0 0 286.522 0.547 Q 286.819 0.534 287.21 0.516 A 175.724 175.724 0 0 0 287.34 0.51 Q 287.64 0.51 287.76 0.72 Q 287.88 0.93 287.88 1.17 Q 287.853 1.621 287.698 1.72 A 0.176 0.176 0 0 1 287.655 1.74 A 1.131 1.131 0 0 1 287.505 1.774 Q 287.347 1.8 287.13 1.8 A 3.955 3.955 0 0 0 286.674 1.824 Q 286.204 1.879 285.926 2.057 A 0.952 0.952 0 0 0 285.81 2.145 Q 285.42 2.49 285.345 3.015 A 12.116 12.116 0 0 0 285.25 3.933 A 13.539 13.539 0 0 0 285.24 4.11 L 285.18 19.23 A 0.369 0.369 0 0 1 285.123 19.391 Q 285.073 19.467 284.98 19.512 A 0.538 0.538 0 0 1 284.895 19.545 A 2.034 2.034 0 0 1 284.68 19.596 Q 284.548 19.62 284.43 19.62 A 1.328 1.328 0 0 1 284.07 19.574 A 0.952 0.952 0 0 1 283.56 19.23 L 272.25 4.11 L 272.16 4.11 L 272.22 16.02 A 12.541 12.541 0 0 0 272.303 16.95 A 11.239 11.239 0 0 0 272.325 17.115 Q 272.4 17.64 272.79 17.985 Q 273.144 18.298 273.945 18.327 A 4.627 4.627 0 0 0 274.11 18.33 A 2.994 2.994 0 0 1 274.323 18.337 Q 274.426 18.344 274.514 18.36 A 1.285 1.285 0 0 1 274.65 18.39 A 0.227 0.227 0 0 1 274.777 18.49 Q 274.869 18.628 274.889 18.947 A 2.483 2.483 0 0 1 274.89 18.96 Q 274.89 19.2 274.755 19.41 A 0.434 0.434 0 0 1 274.441 19.614 A 0.612 0.612 0 0 1 274.35 19.62 Q 273.917 19.599 273.576 19.586 A 56.088 56.088 0 0 0 273.285 19.575 Q 272.85 19.56 272.445 19.545 Q 272.045 19.53 271.454 19.53 A 50.69 50.69 0 0 0 271.44 19.53 A 41.533 41.533 0 0 0 271.154 19.531 Q 270.746 19.534 270.465 19.545 Q 270.09 19.56 269.7 19.575 A 84.58 84.58 0 0 0 269.488 19.583 Q 269.252 19.593 268.945 19.607 A 276.274 276.274 0 0 0 268.65 19.62 Q 268.35 19.62 268.23 19.41 Q 268.11 19.2 268.11 18.96 A 1.934 1.934 0 0 1 268.129 18.773 Q 268.182 18.438 268.35 18.39 Q 268.522 18.341 268.755 18.332 A 2.764 2.764 0 0 1 268.86 18.33 A 4.224 4.224 0 0 0 269.303 18.308 Q 269.914 18.244 270.195 17.985 Q 270.57 17.64 270.66 17.115 A 6.39 6.39 0 0 0 270.749 16.162 A 7.116 7.116 0 0 0 270.75 16.02 Z M 68.58 16.02 L 68.58 4.11 A 5.637 5.637 0 0 0 68.5 3.147 A 5.173 5.173 0 0 0 68.475 3.015 Q 68.37 2.49 67.98 2.145 A 1.098 1.098 0 0 0 67.645 1.949 Q 67.26 1.8 66.63 1.8 A 2.527 2.527 0 0 1 66.418 1.792 Q 66.251 1.778 66.12 1.74 A 0.227 0.227 0 0 1 65.993 1.64 Q 65.901 1.502 65.881 1.183 A 2.483 2.483 0 0 1 65.88 1.17 Q 65.88 0.93 66 0.72 A 0.394 0.394 0 0 1 66.283 0.519 A 0.587 0.587 0 0 1 66.39 0.51 Q 67.38 0.54 68.22 0.57 A 48.169 48.169 0 0 0 69.736 0.6 A 53.322 53.322 0 0 0 69.96 0.6 L 79.38 0.6 A 1.204 1.204 0 0 1 79.635 0.626 A 0.865 0.865 0 0 1 79.935 0.75 Q 80.16 0.9 80.16 1.32 L 80.25 5.52 Q 80.25 5.82 79.965 5.97 A 1.534 1.534 0 0 1 79.758 6.061 Q 79.642 6.102 79.535 6.114 A 0.816 0.816 0 0 1 79.44 6.12 A 1.397 1.397 0 0 1 79.051 6.067 A 1.238 1.238 0 0 1 78.84 5.985 A 0.682 0.682 0 0 1 78.661 5.859 A 0.556 0.556 0 0 1 78.51 5.58 A 19.78 19.78 0 0 0 78.357 4.714 Q 78.202 3.946 78.015 3.405 Q 77.781 2.729 77.366 2.355 A 1.747 1.747 0 0 0 77.175 2.205 A 1.982 1.982 0 0 0 76.678 1.968 Q 76.218 1.819 75.57 1.8 L 71.55 1.8 L 71.55 9.42 L 76.98 9.42 A 0.475 0.475 0 0 1 77.147 9.471 Q 77.261 9.532 77.325 9.66 Q 77.43 9.87 77.43 10.11 A 0.842 0.842 0 0 1 77.328 10.509 A 0.984 0.984 0 0 1 77.325 10.515 Q 77.234 10.683 77.044 10.706 A 0.528 0.528 0 0 1 76.98 10.71 L 71.55 10.71 L 71.55 16.38 Q 71.58 16.77 71.67 17.235 Q 71.76 17.7 72.195 18.03 A 1.21 1.21 0 0 0 72.536 18.205 Q 72.952 18.348 73.629 18.331 A 6.001 6.001 0 0 0 73.65 18.33 L 76.41 18.33 A 5.94 5.94 0 0 0 77.004 18.285 Q 77.608 18.207 77.989 18 A 1.682 1.682 0 0 0 78.015 17.985 Q 78.536 17.69 78.858 17.011 A 3.403 3.403 0 0 0 78.9 16.92 A 10.341 10.341 0 0 0 79.112 16.396 Q 79.336 15.8 79.585 14.969 A 35.456 35.456 0 0 0 79.62 14.85 A 0.727 0.727 0 0 1 79.742 14.644 A 0.605 0.605 0 0 1 80.025 14.46 Q 80.292 14.376 80.599 14.423 A 1.581 1.581 0 0 1 80.64 14.43 Q 80.88 14.46 81.135 14.64 A 0.589 0.589 0 0 1 81.272 14.771 Q 81.363 14.895 81.363 15.058 A 0.621 0.621 0 0 1 81.36 15.12 L 80.76 18.9 A 1.705 1.705 0 0 1 80.71 19.085 Q 80.647 19.272 80.553 19.366 A 0.338 0.338 0 0 1 80.475 19.425 A 0.705 0.705 0 0 1 80.326 19.483 Q 80.177 19.523 79.962 19.529 A 2.697 2.697 0 0 1 79.89 19.53 L 69.99 19.53 A 100.097 100.097 0 0 0 68.235 19.545 Q 67.38 19.56 66.39 19.62 A 0.542 0.542 0 0 1 66.232 19.598 A 0.391 0.391 0 0 1 66 19.41 Q 65.88 19.2 65.88 18.96 A 1.934 1.934 0 0 1 65.899 18.773 Q 65.952 18.438 66.12 18.39 Q 66.292 18.341 66.525 18.332 A 2.764 2.764 0 0 1 66.63 18.33 A 4.251 4.251 0 0 0 67.074 18.308 Q 67.688 18.244 67.98 17.985 Q 68.37 17.64 68.475 17.115 A 5.53 5.53 0 0 0 68.579 16.109 A 6.133 6.133 0 0 0 68.58 16.02 Z M 31.59 16.53 L 38.31 4.08 A 14.538 14.538 0 0 0 38.535 3.583 Q 38.857 2.831 38.88 2.475 A 0.885 0.885 0 0 0 38.882 2.422 Q 38.883 2.079 38.598 1.951 A 0.757 0.757 0 0 0 38.46 1.905 Q 38.084 1.817 37.415 1.803 A 12.761 12.761 0 0 0 37.14 1.8 L 33.87 1.8 Q 32.85 1.83 32.295 2.145 Q 31.774 2.44 31.452 3.119 A 3.403 3.403 0 0 0 31.41 3.21 Q 31.112 3.887 30.74 5.03 A 41.496 41.496 0 0 0 30.66 5.28 A 0.614 0.614 0 0 1 30.573 5.463 Q 30.471 5.604 30.291 5.653 A 0.643 0.643 0 0 1 30.285 5.655 A 1.66 1.66 0 0 1 29.911 5.708 Q 29.794 5.711 29.67 5.7 Q 29.43 5.64 29.22 5.475 A 0.463 0.463 0 0 1 29.038 5.136 Q 29.034 5.08 29.039 5.019 A 0.795 0.795 0 0 1 29.04 5.01 L 29.64 1.23 A 1.705 1.705 0 0 1 29.69 1.045 Q 29.753 0.858 29.847 0.764 A 0.338 0.338 0 0 1 29.925 0.705 A 0.705 0.705 0 0 1 30.074 0.647 Q 30.223 0.607 30.438 0.601 A 2.697 2.697 0 0 1 30.51 0.6 L 40.8 0.6 Q 42.57 0.6 44.49 0.51 Q 44.79 0.51 44.91 0.72 Q 45.03 0.93 45.03 1.17 Q 45.004 1.61 44.856 1.704 A 0.162 0.162 0 0 1 44.805 1.725 A 2.37 2.37 0 0 1 44.67 1.752 Q 44.518 1.778 44.31 1.797 A 7.871 7.871 0 0 1 44.28 1.8 A 2.88 2.88 0 0 0 43.581 1.919 A 1.957 1.957 0 0 0 42.6 2.58 Q 42.03 3.3 41.61 4.08 L 35.04 16.53 Q 34.89 16.89 34.815 17.31 A 0.914 0.914 0 0 0 34.801 17.433 Q 34.787 17.773 35.055 18.015 A 0.804 0.804 0 0 0 35.287 18.155 Q 35.654 18.308 36.382 18.33 A 7.28 7.28 0 0 0 36.39 18.33 L 39.93 18.33 A 5.94 5.94 0 0 0 40.524 18.285 Q 41.128 18.207 41.509 18 A 1.682 1.682 0 0 0 41.535 17.985 A 1.885 1.885 0 0 0 42.076 17.515 Q 42.24 17.31 42.374 17.045 A 3.488 3.488 0 0 0 42.435 16.92 A 9.231 9.231 0 0 0 42.655 16.396 Q 42.902 15.758 43.17 14.85 Q 43.259 14.553 43.54 14.462 A 0.685 0.685 0 0 1 43.545 14.46 Q 43.812 14.376 44.119 14.423 A 1.581 1.581 0 0 1 44.16 14.43 A 0.8 0.8 0 0 1 44.496 14.555 A 1.035 1.035 0 0 1 44.61 14.64 A 0.506 0.506 0 0 1 44.793 15.008 Q 44.796 15.058 44.791 15.111 A 0.789 0.789 0 0 1 44.79 15.12 L 44.19 18.9 A 1.705 1.705 0 0 1 44.14 19.085 Q 44.077 19.272 43.983 19.366 A 0.338 0.338 0 0 1 43.905 19.425 A 0.705 0.705 0 0 1 43.756 19.483 Q 43.607 19.523 43.392 19.529 A 2.697 2.697 0 0 1 43.32 19.53 L 32.73 19.53 Q 31.83 19.53 30.96 19.545 A 38.933 38.933 0 0 0 29.663 19.59 A 45.199 45.199 0 0 0 29.13 19.62 Q 28.86 19.62 28.725 19.41 Q 28.59 19.2 28.59 18.96 Q 28.65 18.45 28.86 18.39 Q 29.032 18.341 29.265 18.332 A 2.764 2.764 0 0 1 29.37 18.33 A 3.571 3.571 0 0 0 29.713 18.315 Q 29.999 18.287 30.21 18.21 A 1.141 1.141 0 0 0 30.495 18.054 Q 30.677 17.92 30.855 17.7 A 4.27 4.27 0 0 0 31.062 17.418 Q 31.268 17.116 31.51 16.677 A 15.911 15.911 0 0 0 31.59 16.53 Z M 50.22 16.53 L 56.94 4.08 A 14.538 14.538 0 0 0 57.165 3.583 Q 57.487 2.831 57.51 2.475 A 0.885 0.885 0 0 0 57.512 2.422 Q 57.513 2.079 57.228 1.951 A 0.757 0.757 0 0 0 57.09 1.905 Q 56.714 1.817 56.045 1.803 A 12.761 12.761 0 0 0 55.77 1.8 L 52.5 1.8 Q 51.48 1.83 50.925 2.145 Q 50.404 2.44 50.082 3.119 A 3.403 3.403 0 0 0 50.04 3.21 Q 49.742 3.887 49.37 5.03 A 41.496 41.496 0 0 0 49.29 5.28 A 0.614 0.614 0 0 1 49.203 5.463 Q 49.101 5.604 48.921 5.653 A 0.643 0.643 0 0 1 48.915 5.655 A 1.66 1.66 0 0 1 48.541 5.708 Q 48.424 5.711 48.3 5.7 Q 48.06 5.64 47.85 5.475 A 0.463 0.463 0 0 1 47.668 5.136 Q 47.664 5.08 47.669 5.019 A 0.795 0.795 0 0 1 47.67 5.01 L 48.27 1.23 A 1.705 1.705 0 0 1 48.32 1.045 Q 48.383 0.858 48.477 0.764 A 0.338 0.338 0 0 1 48.555 0.705 A 0.705 0.705 0 0 1 48.704 0.647 Q 48.853 0.607 49.068 0.601 A 2.697 2.697 0 0 1 49.14 0.6 L 59.43 0.6 Q 61.2 0.6 63.12 0.51 Q 63.42 0.51 63.54 0.72 Q 63.66 0.93 63.66 1.17 Q 63.634 1.61 63.486 1.704 A 0.162 0.162 0 0 1 63.435 1.725 A 2.37 2.37 0 0 1 63.3 1.752 Q 63.148 1.778 62.94 1.797 A 7.871 7.871 0 0 1 62.91 1.8 A 2.88 2.88 0 0 0 62.211 1.919 A 1.957 1.957 0 0 0 61.23 2.58 Q 60.66 3.3 60.24 4.08 L 53.67 16.53 Q 53.52 16.89 53.445 17.31 A 0.914 0.914 0 0 0 53.431 17.433 Q 53.417 17.773 53.685 18.015 A 0.804 0.804 0 0 0 53.917 18.155 Q 54.284 18.308 55.012 18.33 A 7.28 7.28 0 0 0 55.02 18.33 L 58.56 18.33 A 5.94 5.94 0 0 0 59.154 18.285 Q 59.758 18.207 60.139 18 A 1.682 1.682 0 0 0 60.165 17.985 A 1.885 1.885 0 0 0 60.706 17.515 Q 60.87 17.31 61.004 17.045 A 3.488 3.488 0 0 0 61.065 16.92 A 9.231 9.231 0 0 0 61.285 16.396 Q 61.532 15.758 61.8 14.85 Q 61.889 14.553 62.17 14.462 A 0.685 0.685 0 0 1 62.175 14.46 Q 62.442 14.376 62.749 14.423 A 1.581 1.581 0 0 1 62.79 14.43 A 0.8 0.8 0 0 1 63.126 14.555 A 1.035 1.035 0 0 1 63.24 14.64 A 0.506 0.506 0 0 1 63.423 15.008 Q 63.426 15.058 63.421 15.111 A 0.789 0.789 0 0 1 63.42 15.12 L 62.82 18.9 A 1.705 1.705 0 0 1 62.77 19.085 Q 62.707 19.272 62.613 19.366 A 0.338 0.338 0 0 1 62.535 19.425 A 0.705 0.705 0 0 1 62.386 19.483 Q 62.237 19.523 62.022 19.529 A 2.697 2.697 0 0 1 61.95 19.53 L 51.36 19.53 Q 50.46 19.53 49.59 19.545 A 38.933 38.933 0 0 0 48.293 19.59 A 45.199 45.199 0 0 0 47.76 19.62 Q 47.49 19.62 47.355 19.41 Q 47.22 19.2 47.22 18.96 Q 47.28 18.45 47.49 18.39 Q 47.662 18.341 47.895 18.332 A 2.764 2.764 0 0 1 48 18.33 A 3.571 3.571 0 0 0 48.343 18.315 Q 48.629 18.287 48.84 18.21 A 1.141 1.141 0 0 0 49.125 18.054 Q 49.307 17.92 49.485 17.7 A 4.27 4.27 0 0 0 49.692 17.418 Q 49.898 17.116 50.14 16.677 A 15.911 15.911 0 0 0 50.22 16.53 Z M 239.37 16.02 L 239.37 1.71 L 237.3 1.71 Q 236.28 1.74 235.71 2.145 A 1.994 1.994 0 0 0 235.164 2.743 Q 235.011 2.994 234.901 3.31 A 3.695 3.695 0 0 0 234.87 3.405 A 10.128 10.128 0 0 0 234.684 4.083 Q 234.604 4.414 234.531 4.796 A 23.171 23.171 0 0 0 234.39 5.61 A 0.419 0.419 0 0 1 234.226 5.898 Q 234.163 5.948 234.076 5.989 A 1.042 1.042 0 0 1 234.015 6.015 A 1.988 1.988 0 0 1 233.611 6.128 A 1.678 1.678 0 0 1 233.34 6.15 A 0.7 0.7 0 0 1 233.148 6.121 Q 233.018 6.084 232.875 6 A 0.533 0.533 0 0 1 232.713 5.858 Q 232.635 5.751 232.622 5.605 A 0.659 0.659 0 0 1 232.62 5.55 L 232.71 1.32 Q 232.71 1.082 232.787 0.93 A 0.447 0.447 0 0 1 232.95 0.75 A 0.978 0.978 0 0 1 233.323 0.615 A 1.286 1.286 0 0 1 233.52 0.6 L 248.19 0.6 A 1.204 1.204 0 0 1 248.445 0.626 A 0.865 0.865 0 0 1 248.745 0.75 Q 248.97 0.9 248.97 1.32 L 249.09 5.55 Q 249.09 5.85 248.835 6 A 1.199 1.199 0 0 1 248.623 6.1 A 0.855 0.855 0 0 1 248.34 6.15 A 1.498 1.498 0 0 1 247.973 6.102 A 1.965 1.965 0 0 1 247.71 6.015 Q 247.38 5.88 247.32 5.61 A 20.633 20.633 0 0 0 247.167 4.74 Q 247.089 4.353 247.004 4.019 A 9.027 9.027 0 0 0 246.825 3.405 Q 246.593 2.708 246.181 2.31 A 1.857 1.857 0 0 0 245.985 2.145 A 1.937 1.937 0 0 0 245.455 1.879 Q 245.202 1.794 244.894 1.751 A 4.729 4.729 0 0 0 244.38 1.71 L 242.34 1.71 L 242.34 16.02 A 9.531 9.531 0 0 0 242.438 16.979 A 8.608 8.608 0 0 0 242.46 17.115 Q 242.55 17.64 242.955 17.985 A 1.185 1.185 0 0 0 243.314 18.188 Q 243.643 18.311 244.133 18.327 A 4.658 4.658 0 0 0 244.29 18.33 A 2.527 2.527 0 0 1 244.502 18.338 Q 244.669 18.353 244.8 18.39 A 0.227 0.227 0 0 1 244.927 18.49 Q 245.019 18.628 245.039 18.947 A 2.483 2.483 0 0 1 245.04 18.96 Q 245.04 19.2 244.92 19.41 Q 244.8 19.62 244.5 19.62 A 43.35 43.35 0 0 0 243.341 19.563 A 36.307 36.307 0 0 0 242.685 19.545 Q 241.83 19.53 240.96 19.53 Q 239.16 19.53 237.21 19.62 Q 236.91 19.62 236.79 19.41 Q 236.67 19.2 236.67 18.96 A 1.934 1.934 0 0 1 236.689 18.773 Q 236.742 18.438 236.91 18.39 Q 237.082 18.341 237.315 18.332 A 2.764 2.764 0 0 1 237.42 18.33 A 4.251 4.251 0 0 0 237.864 18.308 Q 238.478 18.244 238.77 17.985 Q 239.16 17.64 239.265 17.115 A 5.53 5.53 0 0 0 239.369 16.109 A 6.133 6.133 0 0 0 239.37 16.02 Z M 148.74 16.02 L 153.99 3.6 A 3.232 3.232 0 0 0 154.089 3.332 Q 154.217 2.925 154.16 2.653 A 0.653 0.653 0 0 0 154.11 2.505 Q 153.93 2.13 153.51 1.965 A 4.481 4.481 0 0 0 152.95 1.788 A 5.524 5.524 0 0 0 152.58 1.71 A 7.523 7.523 0 0 1 152.386 1.669 Q 152.095 1.602 151.98 1.545 A 0.14 0.14 0 0 1 151.975 1.543 Q 151.83 1.463 151.83 1.02 A 1.077 1.077 0 0 1 151.846 0.826 Q 151.865 0.725 151.905 0.652 A 0.356 0.356 0 0 1 152.19 0.465 A 5.398 5.398 0 0 1 152.528 0.434 Q 152.702 0.424 152.897 0.421 A 9.708 9.708 0 0 1 153.03 0.42 Q 153.996 0.42 154.74 0.568 A 5.513 5.513 0 0 1 155.13 0.66 Q 156 0.9 156.63 1.575 Q 157.058 2.034 157.445 2.804 A 10.345 10.345 0 0 1 157.8 3.6 L 162.84 16.02 A 40.87 40.87 0 0 0 163.23 16.935 A 45.278 45.278 0 0 0 163.29 17.07 A 2.623 2.623 0 0 0 163.633 17.643 A 2.255 2.255 0 0 0 163.935 17.955 A 1.534 1.534 0 0 0 164.598 18.28 A 2.109 2.109 0 0 0 164.97 18.33 Q 165.292 18.33 165.486 18.387 A 0.875 0.875 0 0 1 165.495 18.39 A 0.209 0.209 0 0 1 165.606 18.479 Q 165.7 18.619 165.72 18.96 Q 165.72 19.2 165.585 19.41 A 0.434 0.434 0 0 1 165.271 19.614 A 0.612 0.612 0 0 1 165.18 19.62 A 53.421 53.421 0 0 0 164.494 19.581 Q 163.95 19.554 163.5 19.545 A 65.931 65.931 0 0 0 162.76 19.534 Q 162.37 19.53 161.938 19.53 A 106.815 106.815 0 0 0 161.88 19.53 Q 160.11 19.53 158.16 19.62 Q 157.86 19.62 157.74 19.41 Q 157.62 19.2 157.62 18.96 A 1.934 1.934 0 0 1 157.639 18.773 Q 157.692 18.438 157.86 18.39 Q 158.032 18.341 158.265 18.332 A 2.764 2.764 0 0 1 158.37 18.33 A 6.131 6.131 0 0 0 158.874 18.311 Q 159.865 18.229 159.975 17.79 A 1.074 1.074 0 0 0 160.002 17.629 Q 160.053 17.082 159.69 16.02 L 158.67 13.53 L 151.26 13.53 A 411.491 411.491 0 0 0 151.051 14.061 Q 150.792 14.72 150.647 15.095 A 52.177 52.177 0 0 0 150.615 15.18 A 40.423 40.423 0 0 0 150.537 15.386 Q 150.41 15.722 150.375 15.84 A 1.95 1.95 0 0 1 150.359 15.892 Q 150.332 15.972 150.312 16.005 A 0.088 0.088 0 0 1 150.3 16.02 A 13.396 13.396 0 0 0 150.155 16.497 Q 150.024 16.959 149.979 17.279 A 2.34 2.34 0 0 0 149.955 17.535 A 0.951 0.951 0 0 0 149.955 17.564 Q 149.955 17.945 150.271 18.113 A 0.916 0.916 0 0 0 150.435 18.18 Q 150.811 18.294 151.575 18.321 A 14.691 14.691 0 0 0 152.1 18.33 Q 152.422 18.33 152.616 18.387 A 0.875 0.875 0 0 1 152.625 18.39 A 0.209 0.209 0 0 1 152.736 18.479 Q 152.83 18.619 152.85 18.96 Q 152.85 19.2 152.715 19.41 A 0.434 0.434 0 0 1 152.401 19.614 A 0.612 0.612 0 0 1 152.31 19.62 A 54.635 54.635 0 0 0 151.626 19.581 Q 151.356 19.568 151.111 19.559 A 29.642 29.642 0 0 0 150.645 19.545 Q 149.987 19.531 149.159 19.53 A 105.917 105.917 0 0 0 149.04 19.53 A 42.362 42.362 0 0 0 148.752 19.531 Q 148.345 19.534 148.045 19.545 A 15.541 15.541 0 0 0 148.035 19.545 Q 147.63 19.56 147.21 19.575 A 67.55 67.55 0 0 0 146.985 19.583 Q 146.676 19.596 146.267 19.614 A 201.771 201.771 0 0 0 146.13 19.62 Q 145.83 19.62 145.71 19.41 Q 145.59 19.2 145.59 18.96 A 1.934 1.934 0 0 1 145.609 18.773 Q 145.662 18.438 145.83 18.39 Q 146.002 18.341 146.235 18.332 A 2.764 2.764 0 0 1 146.34 18.33 Q 146.86 18.33 147.219 18.194 A 1.319 1.319 0 0 0 147.57 18 A 2.274 2.274 0 0 0 148.116 17.372 A 2.792 2.792 0 0 0 148.245 17.13 Q 148.5 16.59 148.74 16.02 Z M 251.19 16.02 L 256.44 3.6 A 3.232 3.232 0 0 0 256.539 3.332 Q 256.667 2.925 256.61 2.653 A 0.653 0.653 0 0 0 256.56 2.505 Q 256.38 2.13 255.96 1.965 A 4.481 4.481 0 0 0 255.4 1.788 A 5.524 5.524 0 0 0 255.03 1.71 A 7.523 7.523 0 0 1 254.836 1.669 Q 254.545 1.602 254.43 1.545 A 0.14 0.14 0 0 1 254.425 1.543 Q 254.28 1.463 254.28 1.02 A 1.077 1.077 0 0 1 254.296 0.826 Q 254.315 0.725 254.355 0.652 A 0.356 0.356 0 0 1 254.64 0.465 A 5.398 5.398 0 0 1 254.978 0.434 Q 255.152 0.424 255.347 0.421 A 9.708 9.708 0 0 1 255.48 0.42 Q 256.446 0.42 257.19 0.568 A 5.513 5.513 0 0 1 257.58 0.66 Q 258.45 0.9 259.08 1.575 Q 259.508 2.034 259.895 2.804 A 10.345 10.345 0 0 1 260.25 3.6 L 265.29 16.02 A 40.87 40.87 0 0 0 265.68 16.935 A 45.278 45.278 0 0 0 265.74 17.07 A 2.623 2.623 0 0 0 266.083 17.643 A 2.255 2.255 0 0 0 266.385 17.955 A 1.534 1.534 0 0 0 267.048 18.28 A 2.109 2.109 0 0 0 267.42 18.33 Q 267.742 18.33 267.936 18.387 A 0.875 0.875 0 0 1 267.945 18.39 A 0.209 0.209 0 0 1 268.056 18.479 Q 268.15 18.619 268.17 18.96 Q 268.17 19.2 268.035 19.41 A 0.434 0.434 0 0 1 267.721 19.614 A 0.612 0.612 0 0 1 267.63 19.62 A 53.421 53.421 0 0 0 266.944 19.581 Q 266.4 19.554 265.95 19.545 A 65.931 65.931 0 0 0 265.21 19.534 Q 264.82 19.53 264.388 19.53 A 106.815 106.815 0 0 0 264.33 19.53 Q 262.56 19.53 260.61 19.62 Q 260.31 19.62 260.19 19.41 Q 260.07 19.2 260.07 18.96 A 1.934 1.934 0 0 1 260.089 18.773 Q 260.142 18.438 260.31 18.39 Q 260.482 18.341 260.715 18.332 A 2.764 2.764 0 0 1 260.82 18.33 A 6.131 6.131 0 0 0 261.324 18.311 Q 262.315 18.229 262.425 17.79 A 1.074 1.074 0 0 0 262.452 17.629 Q 262.503 17.082 262.14 16.02 L 261.12 13.53 L 253.71 13.53 A 411.491 411.491 0 0 0 253.501 14.061 Q 253.242 14.72 253.097 15.095 A 52.177 52.177 0 0 0 253.065 15.18 A 40.423 40.423 0 0 0 252.987 15.386 Q 252.86 15.722 252.825 15.84 A 1.95 1.95 0 0 1 252.809 15.892 Q 252.782 15.972 252.762 16.005 A 0.088 0.088 0 0 1 252.75 16.02 A 13.396 13.396 0 0 0 252.605 16.497 Q 252.474 16.959 252.429 17.279 A 2.34 2.34 0 0 0 252.405 17.535 A 0.951 0.951 0 0 0 252.405 17.564 Q 252.405 17.945 252.721 18.113 A 0.916 0.916 0 0 0 252.885 18.18 Q 253.261 18.294 254.025 18.321 A 14.691 14.691 0 0 0 254.55 18.33 Q 254.872 18.33 255.066 18.387 A 0.875 0.875 0 0 1 255.075 18.39 A 0.209 0.209 0 0 1 255.186 18.479 Q 255.28 18.619 255.3 18.96 Q 255.3 19.2 255.165 19.41 A 0.434 0.434 0 0 1 254.851 19.614 A 0.612 0.612 0 0 1 254.76 19.62 A 54.635 54.635 0 0 0 254.076 19.581 Q 253.806 19.568 253.561 19.559 A 29.642 29.642 0 0 0 253.095 19.545 Q 252.437 19.531 251.609 19.53 A 105.917 105.917 0 0 0 251.49 19.53 A 42.362 42.362 0 0 0 251.202 19.531 Q 250.795 19.534 250.495 19.545 A 15.541 15.541 0 0 0 250.485 19.545 Q 250.08 19.56 249.66 19.575 A 67.55 67.55 0 0 0 249.435 19.583 Q 249.126 19.596 248.717 19.614 A 201.771 201.771 0 0 0 248.58 19.62 Q 248.28 19.62 248.16 19.41 Q 248.04 19.2 248.04 18.96 A 1.934 1.934 0 0 1 248.059 18.773 Q 248.112 18.438 248.28 18.39 Q 248.452 18.341 248.685 18.332 A 2.764 2.764 0 0 1 248.79 18.33 Q 249.31 18.33 249.669 18.194 A 1.319 1.319 0 0 0 250.02 18 A 2.274 2.274 0 0 0 250.566 17.372 A 2.792 2.792 0 0 0 250.695 17.13 Q 250.95 16.59 251.19 16.02 Z M 104.01 16.02 L 104.01 4.11 A 5.637 5.637 0 0 0 103.93 3.147 A 5.173 5.173 0 0 0 103.905 3.015 Q 103.8 2.49 103.41 2.145 A 1.098 1.098 0 0 0 103.075 1.949 Q 102.69 1.8 102.06 1.8 A 2.527 2.527 0 0 1 101.848 1.792 Q 101.681 1.778 101.55 1.74 A 0.227 0.227 0 0 1 101.423 1.64 Q 101.331 1.502 101.311 1.183 A 2.483 2.483 0 0 1 101.31 1.17 Q 101.31 0.93 101.43 0.72 A 0.394 0.394 0 0 1 101.713 0.519 A 0.587 0.587 0 0 1 101.82 0.51 Q 102.81 0.54 103.65 0.57 A 48.169 48.169 0 0 0 105.166 0.6 A 53.322 53.322 0 0 0 105.39 0.6 Q 107.22 0.6 109.14 0.51 Q 109.44 0.51 109.56 0.72 Q 109.68 0.93 109.68 1.17 A 1.934 1.934 0 0 1 109.661 1.357 Q 109.608 1.692 109.44 1.74 Q 109.268 1.789 109.035 1.798 A 2.764 2.764 0 0 1 108.93 1.8 A 3.983 3.983 0 0 0 108.473 1.824 Q 107.984 1.881 107.695 2.07 A 1 1 0 0 0 107.595 2.145 Q 107.19 2.49 107.1 3.015 A 9.283 9.283 0 0 0 106.988 3.968 A 10.319 10.319 0 0 0 106.98 4.11 L 106.98 16.47 A 6.36 6.36 0 0 0 107.033 16.928 A 8.081 8.081 0 0 0 107.1 17.31 A 1.117 1.117 0 0 0 107.448 17.919 A 1.551 1.551 0 0 0 107.625 18.06 A 1.231 1.231 0 0 0 107.945 18.212 Q 108.372 18.351 109.08 18.33 L 111.78 18.33 A 5.94 5.94 0 0 0 112.374 18.285 Q 112.978 18.207 113.359 18 A 1.682 1.682 0 0 0 113.385 17.985 Q 113.906 17.69 114.228 17.011 A 3.403 3.403 0 0 0 114.27 16.92 A 10.341 10.341 0 0 0 114.482 16.396 Q 114.706 15.8 114.955 14.969 A 35.456 35.456 0 0 0 114.99 14.85 A 0.727 0.727 0 0 1 115.112 14.644 A 0.605 0.605 0 0 1 115.395 14.46 Q 115.662 14.376 115.969 14.423 A 1.581 1.581 0 0 1 116.01 14.43 A 0.914 0.914 0 0 1 116.254 14.498 Q 116.378 14.55 116.505 14.64 A 0.589 0.589 0 0 1 116.642 14.771 Q 116.733 14.895 116.733 15.058 A 0.621 0.621 0 0 1 116.73 15.12 L 116.13 18.9 A 1.705 1.705 0 0 1 116.08 19.085 Q 116.017 19.272 115.923 19.366 A 0.338 0.338 0 0 1 115.845 19.425 A 0.705 0.705 0 0 1 115.696 19.483 Q 115.547 19.523 115.332 19.529 A 2.697 2.697 0 0 1 115.26 19.53 L 105.42 19.53 A 100.097 100.097 0 0 0 103.665 19.545 Q 102.81 19.56 101.82 19.62 A 0.542 0.542 0 0 1 101.662 19.598 A 0.391 0.391 0 0 1 101.43 19.41 Q 101.31 19.2 101.31 18.96 A 1.934 1.934 0 0 1 101.329 18.773 Q 101.382 18.438 101.55 18.39 Q 101.722 18.341 101.955 18.332 A 2.764 2.764 0 0 1 102.06 18.33 A 4.251 4.251 0 0 0 102.504 18.308 Q 103.118 18.244 103.41 17.985 Q 103.8 17.64 103.905 17.115 A 5.53 5.53 0 0 0 104.009 16.109 A 6.133 6.133 0 0 0 104.01 16.02 Z M 208.14 16.02 L 208.14 4.11 A 5.637 5.637 0 0 0 208.06 3.147 A 5.173 5.173 0 0 0 208.035 3.015 Q 207.93 2.49 207.54 2.145 A 1.098 1.098 0 0 0 207.205 1.949 Q 206.82 1.8 206.19 1.8 A 2.527 2.527 0 0 1 205.978 1.792 Q 205.811 1.778 205.68 1.74 A 0.227 0.227 0 0 1 205.553 1.64 Q 205.461 1.502 205.441 1.183 A 2.483 2.483 0 0 1 205.44 1.17 Q 205.44 0.93 205.56 0.72 A 0.394 0.394 0 0 1 205.843 0.519 A 0.587 0.587 0 0 1 205.95 0.51 Q 206.94 0.54 207.78 0.57 A 48.169 48.169 0 0 0 209.296 0.6 A 53.322 53.322 0 0 0 209.52 0.6 Q 211.35 0.6 213.27 0.51 Q 213.57 0.51 213.69 0.72 Q 213.81 0.93 213.81 1.17 A 1.934 1.934 0 0 1 213.791 1.357 Q 213.738 1.692 213.57 1.74 Q 213.398 1.789 213.165 1.798 A 2.764 2.764 0 0 1 213.06 1.8 A 3.983 3.983 0 0 0 212.603 1.824 Q 212.114 1.881 211.825 2.07 A 1 1 0 0 0 211.725 2.145 Q 211.32 2.49 211.23 3.015 A 9.283 9.283 0 0 0 211.118 3.968 A 10.319 10.319 0 0 0 211.11 4.11 L 211.11 16.47 A 6.36 6.36 0 0 0 211.163 16.928 A 8.081 8.081 0 0 0 211.23 17.31 A 1.117 1.117 0 0 0 211.578 17.919 A 1.551 1.551 0 0 0 211.755 18.06 A 1.231 1.231 0 0 0 212.075 18.212 Q 212.502 18.351 213.21 18.33 L 215.91 18.33 A 5.94 5.94 0 0 0 216.504 18.285 Q 217.108 18.207 217.489 18 A 1.682 1.682 0 0 0 217.515 17.985 Q 218.036 17.69 218.358 17.011 A 3.403 3.403 0 0 0 218.4 16.92 A 10.341 10.341 0 0 0 218.612 16.396 Q 218.836 15.8 219.085 14.969 A 35.456 35.456 0 0 0 219.12 14.85 A 0.727 0.727 0 0 1 219.242 14.644 A 0.605 0.605 0 0 1 219.525 14.46 Q 219.792 14.376 220.099 14.423 A 1.581 1.581 0 0 1 220.14 14.43 A 0.914 0.914 0 0 1 220.384 14.498 Q 220.508 14.55 220.635 14.64 A 0.589 0.589 0 0 1 220.772 14.771 Q 220.863 14.895 220.863 15.058 A 0.621 0.621 0 0 1 220.86 15.12 L 220.26 18.9 A 1.705 1.705 0 0 1 220.21 19.085 Q 220.147 19.272 220.053 19.366 A 0.338 0.338 0 0 1 219.975 19.425 A 0.705 0.705 0 0 1 219.826 19.483 Q 219.677 19.523 219.462 19.529 A 2.697 2.697 0 0 1 219.39 19.53 L 209.55 19.53 A 100.097 100.097 0 0 0 207.795 19.545 Q 206.94 19.56 205.95 19.62 A 0.542 0.542 0 0 1 205.792 19.598 A 0.391 0.391 0 0 1 205.56 19.41 Q 205.44 19.2 205.44 18.96 A 1.934 1.934 0 0 1 205.459 18.773 Q 205.512 18.438 205.68 18.39 Q 205.852 18.341 206.085 18.332 A 2.764 2.764 0 0 1 206.19 18.33 A 4.251 4.251 0 0 0 206.634 18.308 Q 207.248 18.244 207.54 17.985 Q 207.93 17.64 208.035 17.115 A 5.53 5.53 0 0 0 208.139 16.109 A 6.133 6.133 0 0 0 208.14 16.02 Z M 2.73 16.02 L 2.73 4.11 A 5.637 5.637 0 0 0 2.65 3.147 A 5.173 5.173 0 0 0 2.625 3.015 Q 2.52 2.49 2.13 2.145 A 1.098 1.098 0 0 0 1.795 1.949 Q 1.41 1.8 0.78 1.8 A 2.542 2.542 0 0 1 0.532 1.789 Q 0.382 1.774 0.255 1.74 Q 0.071 1.691 0.017 1.341 A 1.854 1.854 0 0 1 0 1.17 Q 0 0.93 0.135 0.72 A 0.434 0.434 0 0 1 0.449 0.516 A 0.612 0.612 0 0 1 0.54 0.51 Q 1.5 0.54 2.37 0.57 Q 3.24 0.6 4.14 0.6 L 8.64 0.6 A 9.458 9.458 0 0 1 9.03 0.609 Q 9.481 0.628 10.085 0.686 A 29.663 29.663 0 0 1 10.125 0.69 A 11.549 11.549 0 0 1 11.254 0.86 A 14.501 14.501 0 0 1 12.075 1.05 Q 13.11 1.32 14.04 1.92 Q 14.97 2.52 15.555 3.51 Q 16.14 4.5 16.14 6 A 5.305 5.305 0 0 1 15.862 7.734 A 4.854 4.854 0 0 1 15.495 8.55 Q 14.85 9.69 13.785 10.5 Q 12.72 11.31 11.385 11.745 Q 10.05 12.18 8.67 12.18 Q 8.01 12.18 7.23 12.09 A 6.328 6.328 0 0 1 5.774 11.739 A 7.064 7.064 0 0 1 5.67 11.7 L 5.67 16.02 A 9.531 9.531 0 0 0 5.768 16.979 A 8.608 8.608 0 0 0 5.79 17.115 Q 5.88 17.64 6.285 17.985 A 1.185 1.185 0 0 0 6.644 18.188 Q 6.973 18.311 7.463 18.327 A 4.658 4.658 0 0 0 7.62 18.33 A 2.994 2.994 0 0 1 7.833 18.337 Q 7.936 18.344 8.024 18.36 A 1.285 1.285 0 0 1 8.16 18.39 A 0.227 0.227 0 0 1 8.287 18.49 Q 8.379 18.628 8.399 18.947 A 2.483 2.483 0 0 1 8.4 18.96 Q 8.4 19.2 8.265 19.41 A 0.434 0.434 0 0 1 7.951 19.614 A 0.612 0.612 0 0 1 7.86 19.62 Q 5.94 19.53 4.11 19.53 A 100.097 100.097 0 0 0 2.355 19.545 A 37.979 37.979 0 0 0 1.245 19.581 A 45.263 45.263 0 0 0 0.54 19.62 Q 0.27 19.62 0.135 19.41 Q 0 19.2 0 18.96 A 1.8 1.8 0 0 1 0.02 18.771 Q 0.051 18.584 0.121 18.487 A 0.24 0.24 0 0 1 0.255 18.39 A 1.673 1.673 0 0 1 0.482 18.347 Q 0.595 18.333 0.721 18.331 A 2.89 2.89 0 0 1 0.78 18.33 A 4.251 4.251 0 0 0 1.224 18.308 Q 1.838 18.244 2.13 17.985 Q 2.52 17.64 2.625 17.115 A 5.53 5.53 0 0 0 2.729 16.109 A 6.133 6.133 0 0 0 2.73 16.02 Z M 168.33 16.02 L 168.33 4.11 A 5.637 5.637 0 0 0 168.25 3.147 A 5.173 5.173 0 0 0 168.225 3.015 Q 168.12 2.49 167.73 2.145 A 1.098 1.098 0 0 0 167.395 1.949 Q 167.01 1.8 166.38 1.8 A 2.542 2.542 0 0 1 166.132 1.789 Q 165.982 1.774 165.855 1.74 Q 165.671 1.691 165.617 1.341 A 1.854 1.854 0 0 1 165.6 1.17 Q 165.6 0.93 165.735 0.72 A 0.434 0.434 0 0 1 166.049 0.516 A 0.612 0.612 0 0 1 166.14 0.51 Q 167.1 0.54 167.97 0.57 Q 168.84 0.6 169.74 0.6 L 174.24 0.6 A 9.458 9.458 0 0 1 174.63 0.609 Q 175.081 0.628 175.685 0.686 A 29.663 29.663 0 0 1 175.725 0.69 A 11.549 11.549 0 0 1 176.854 0.86 A 14.501 14.501 0 0 1 177.675 1.05 Q 178.71 1.32 179.64 1.92 Q 180.57 2.52 181.155 3.51 Q 181.74 4.5 181.74 6 A 5.305 5.305 0 0 1 181.462 7.734 A 4.854 4.854 0 0 1 181.095 8.55 Q 180.45 9.69 179.385 10.5 Q 178.32 11.31 176.985 11.745 Q 175.65 12.18 174.27 12.18 Q 173.61 12.18 172.83 12.09 A 6.328 6.328 0 0 1 171.374 11.739 A 7.064 7.064 0 0 1 171.27 11.7 L 171.27 16.02 A 9.531 9.531 0 0 0 171.368 16.979 A 8.608 8.608 0 0 0 171.39 17.115 Q 171.48 17.64 171.885 17.985 A 1.185 1.185 0 0 0 172.244 18.188 Q 172.573 18.311 173.063 18.327 A 4.658 4.658 0 0 0 173.22 18.33 A 2.994 2.994 0 0 1 173.433 18.337 Q 173.536 18.344 173.624 18.36 A 1.285 1.285 0 0 1 173.76 18.39 A 0.227 0.227 0 0 1 173.887 18.49 Q 173.979 18.628 173.999 18.947 A 2.483 2.483 0 0 1 174 18.96 Q 174 19.2 173.865 19.41 A 0.434 0.434 0 0 1 173.551 19.614 A 0.612 0.612 0 0 1 173.46 19.62 Q 171.54 19.53 169.71 19.53 A 100.097 100.097 0 0 0 167.955 19.545 A 37.979 37.979 0 0 0 166.845 19.581 A 45.263 45.263 0 0 0 166.14 19.62 Q 165.87 19.62 165.735 19.41 Q 165.6 19.2 165.6 18.96 A 1.8 1.8 0 0 1 165.62 18.771 Q 165.651 18.584 165.721 18.487 A 0.24 0.24 0 0 1 165.855 18.39 A 1.673 1.673 0 0 1 166.082 18.347 Q 166.195 18.333 166.321 18.331 A 2.89 2.89 0 0 1 166.38 18.33 A 4.251 4.251 0 0 0 166.824 18.308 Q 167.438 18.244 167.73 17.985 Q 168.12 17.64 168.225 17.115 A 5.53 5.53 0 0 0 168.329 16.109 A 6.133 6.133 0 0 0 168.33 16.02 Z M 191.109 19.874 A 10.239 10.239 0 0 0 193.44 20.13 Q 195.09 20.13 196.785 19.44 A 9.878 9.878 0 0 0 197.412 19.159 A 10.648 10.648 0 0 0 199.92 17.43 A 9.251 9.251 0 0 0 200.685 16.64 A 10.171 10.171 0 0 0 202.23 14.19 A 9.383 9.383 0 0 0 202.886 12.11 A 12.133 12.133 0 0 0 203.1 9.78 Q 203.1 7.89 202.44 6.135 Q 201.78 4.38 200.52 3 Q 199.26 1.62 197.475 0.81 A 8.706 8.706 0 0 0 195.714 0.232 Q 194.644 0 193.44 0 A 8.262 8.262 0 0 0 192.248 0.087 A 9.523 9.523 0 0 0 190.095 0.675 A 9.433 9.433 0 0 0 189.754 0.819 A 9.937 9.937 0 0 0 186.99 2.67 A 9.209 9.209 0 0 0 186.163 3.554 A 10.295 10.295 0 0 0 184.725 5.91 A 9.51 9.51 0 0 0 184.077 8.007 A 12.354 12.354 0 0 0 183.87 10.32 Q 183.87 12.24 184.53 13.995 Q 185.19 15.75 186.45 17.13 Q 187.71 18.51 189.48 19.32 A 8.595 8.595 0 0 0 191.109 19.874 Z M 297.069 19.874 A 10.239 10.239 0 0 0 299.4 20.13 Q 301.05 20.13 302.745 19.44 A 9.878 9.878 0 0 0 303.372 19.159 A 10.648 10.648 0 0 0 305.88 17.43 A 9.251 9.251 0 0 0 306.645 16.64 A 10.171 10.171 0 0 0 308.19 14.19 A 9.383 9.383 0 0 0 308.846 12.11 A 12.133 12.133 0 0 0 309.06 9.78 Q 309.06 7.89 308.4 6.135 Q 307.74 4.38 306.48 3 Q 305.22 1.62 303.435 0.81 A 8.706 8.706 0 0 0 301.674 0.232 Q 300.604 0 299.4 0 A 8.262 8.262 0 0 0 298.208 0.087 A 9.523 9.523 0 0 0 296.055 0.675 A 9.433 9.433 0 0 0 295.714 0.819 A 9.937 9.937 0 0 0 292.95 2.67 A 9.209 9.209 0 0 0 292.123 3.554 A 10.295 10.295 0 0 0 290.685 5.91 A 9.51 9.51 0 0 0 290.037 8.007 A 12.354 12.354 0 0 0 289.83 10.32 Q 289.83 12.24 290.49 13.995 Q 291.15 15.75 292.41 17.13 Q 293.67 18.51 295.44 19.32 A 8.595 8.595 0 0 0 297.069 19.874 Z M 20.64 16.02 L 20.64 4.11 A 7.712 7.712 0 0 0 20.53 3.147 A 7.032 7.032 0 0 0 20.505 3.015 Q 20.4 2.49 20.01 2.145 A 1.098 1.098 0 0 0 19.675 1.949 Q 19.29 1.8 18.66 1.8 A 2.527 2.527 0 0 1 18.448 1.792 Q 18.281 1.778 18.15 1.74 A 0.227 0.227 0 0 1 18.023 1.64 Q 17.931 1.502 17.911 1.183 A 2.483 2.483 0 0 1 17.91 1.17 Q 17.91 0.93 18.03 0.72 Q 18.15 0.51 18.45 0.51 Q 19.41 0.54 20.265 0.57 Q 21.12 0.6 22.02 0.6 Q 23.85 0.6 25.77 0.51 Q 26.04 0.51 26.175 0.72 Q 26.31 0.93 26.31 1.17 A 1.934 1.934 0 0 1 26.291 1.357 Q 26.238 1.692 26.07 1.74 Q 25.918 1.783 25.703 1.795 A 3.114 3.114 0 0 1 25.53 1.8 A 3.983 3.983 0 0 0 25.073 1.824 Q 24.584 1.881 24.295 2.07 A 1 1 0 0 0 24.195 2.145 Q 23.79 2.49 23.7 3.015 A 9.283 9.283 0 0 0 23.588 3.968 A 10.319 10.319 0 0 0 23.58 4.11 L 23.58 16.02 A 9.531 9.531 0 0 0 23.678 16.979 A 8.608 8.608 0 0 0 23.7 17.115 Q 23.79 17.64 24.195 17.985 A 1.185 1.185 0 0 0 24.554 18.188 Q 24.883 18.311 25.373 18.327 A 4.658 4.658 0 0 0 25.53 18.33 A 2.994 2.994 0 0 1 25.743 18.337 Q 25.846 18.344 25.934 18.36 A 1.285 1.285 0 0 1 26.07 18.39 A 0.227 0.227 0 0 1 26.197 18.49 Q 26.289 18.628 26.309 18.947 A 2.483 2.483 0 0 1 26.31 18.96 Q 26.31 19.2 26.175 19.41 A 0.434 0.434 0 0 1 25.861 19.614 A 0.612 0.612 0 0 1 25.77 19.62 A 80.488 80.488 0 0 0 22.502 19.531 A 72.918 72.918 0 0 0 22.05 19.53 Q 21.15 19.53 20.28 19.545 A 38.933 38.933 0 0 0 18.983 19.59 A 45.199 45.199 0 0 0 18.45 19.62 Q 18.15 19.62 18.03 19.41 Q 17.91 19.2 17.91 18.96 A 1.934 1.934 0 0 1 17.929 18.773 Q 17.982 18.438 18.15 18.39 Q 18.322 18.341 18.555 18.332 A 2.764 2.764 0 0 1 18.66 18.33 A 4.251 4.251 0 0 0 19.104 18.308 Q 19.718 18.244 20.01 17.985 Q 20.4 17.64 20.505 17.115 A 7.529 7.529 0 0 0 20.631 16.162 A 8.321 8.321 0 0 0 20.64 16.02 Z M 93.09 16.02 L 93.09 4.11 A 7.712 7.712 0 0 0 92.98 3.147 A 7.032 7.032 0 0 0 92.955 3.015 Q 92.85 2.49 92.46 2.145 A 1.098 1.098 0 0 0 92.125 1.949 Q 91.74 1.8 91.11 1.8 A 2.527 2.527 0 0 1 90.898 1.792 Q 90.731 1.778 90.6 1.74 A 0.227 0.227 0 0 1 90.473 1.64 Q 90.381 1.502 90.361 1.183 A 2.483 2.483 0 0 1 90.36 1.17 Q 90.36 0.93 90.48 0.72 Q 90.6 0.51 90.9 0.51 Q 91.86 0.54 92.715 0.57 Q 93.57 0.6 94.47 0.6 Q 96.3 0.6 98.22 0.51 Q 98.49 0.51 98.625 0.72 Q 98.76 0.93 98.76 1.17 A 1.934 1.934 0 0 1 98.741 1.357 Q 98.688 1.692 98.52 1.74 Q 98.368 1.783 98.153 1.795 A 3.114 3.114 0 0 1 97.98 1.8 A 3.983 3.983 0 0 0 97.523 1.824 Q 97.034 1.881 96.745 2.07 A 1 1 0 0 0 96.645 2.145 Q 96.24 2.49 96.15 3.015 A 9.283 9.283 0 0 0 96.038 3.968 A 10.319 10.319 0 0 0 96.03 4.11 L 96.03 16.02 A 9.531 9.531 0 0 0 96.128 16.979 A 8.608 8.608 0 0 0 96.15 17.115 Q 96.24 17.64 96.645 17.985 A 1.185 1.185 0 0 0 97.004 18.188 Q 97.333 18.311 97.823 18.327 A 4.658 4.658 0 0 0 97.98 18.33 A 2.994 2.994 0 0 1 98.193 18.337 Q 98.296 18.344 98.384 18.36 A 1.285 1.285 0 0 1 98.52 18.39 A 0.227 0.227 0 0 1 98.647 18.49 Q 98.739 18.628 98.759 18.947 A 2.483 2.483 0 0 1 98.76 18.96 Q 98.76 19.2 98.625 19.41 A 0.434 0.434 0 0 1 98.311 19.614 A 0.612 0.612 0 0 1 98.22 19.62 A 80.488 80.488 0 0 0 94.952 19.531 A 72.918 72.918 0 0 0 94.5 19.53 Q 93.6 19.53 92.73 19.545 A 38.933 38.933 0 0 0 91.433 19.59 A 45.199 45.199 0 0 0 90.9 19.62 Q 90.6 19.62 90.48 19.41 Q 90.36 19.2 90.36 18.96 A 1.934 1.934 0 0 1 90.379 18.773 Q 90.432 18.438 90.6 18.39 Q 90.772 18.341 91.005 18.332 A 2.764 2.764 0 0 1 91.11 18.33 A 4.251 4.251 0 0 0 91.554 18.308 Q 92.168 18.244 92.46 17.985 Q 92.85 17.64 92.955 17.115 A 7.529 7.529 0 0 0 93.081 16.162 A 8.321 8.321 0 0 0 93.09 16.02 Z M 225.27 16.02 L 225.27 4.11 A 7.712 7.712 0 0 0 225.16 3.147 A 7.032 7.032 0 0 0 225.135 3.015 Q 225.03 2.49 224.64 2.145 A 1.098 1.098 0 0 0 224.305 1.949 Q 223.92 1.8 223.29 1.8 A 2.527 2.527 0 0 1 223.078 1.792 Q 222.911 1.778 222.78 1.74 A 0.227 0.227 0 0 1 222.653 1.64 Q 222.561 1.502 222.541 1.183 A 2.483 2.483 0 0 1 222.54 1.17 Q 222.54 0.93 222.66 0.72 Q 222.78 0.51 223.08 0.51 Q 224.04 0.54 224.895 0.57 Q 225.75 0.6 226.65 0.6 Q 228.48 0.6 230.4 0.51 Q 230.67 0.51 230.805 0.72 Q 230.94 0.93 230.94 1.17 A 1.934 1.934 0 0 1 230.921 1.357 Q 230.868 1.692 230.7 1.74 Q 230.548 1.783 230.333 1.795 A 3.114 3.114 0 0 1 230.16 1.8 A 3.983 3.983 0 0 0 229.703 1.824 Q 229.214 1.881 228.925 2.07 A 1 1 0 0 0 228.825 2.145 Q 228.42 2.49 228.33 3.015 A 9.283 9.283 0 0 0 228.218 3.968 A 10.319 10.319 0 0 0 228.21 4.11 L 228.21 16.02 A 9.531 9.531 0 0 0 228.308 16.979 A 8.608 8.608 0 0 0 228.33 17.115 Q 228.42 17.64 228.825 17.985 A 1.185 1.185 0 0 0 229.184 18.188 Q 229.513 18.311 230.003 18.327 A 4.658 4.658 0 0 0 230.16 18.33 A 2.994 2.994 0 0 1 230.373 18.337 Q 230.476 18.344 230.564 18.36 A 1.285 1.285 0 0 1 230.7 18.39 A 0.227 0.227 0 0 1 230.827 18.49 Q 230.919 18.628 230.939 18.947 A 2.483 2.483 0 0 1 230.94 18.96 Q 230.94 19.2 230.805 19.41 A 0.434 0.434 0 0 1 230.491 19.614 A 0.612 0.612 0 0 1 230.4 19.62 A 80.488 80.488 0 0 0 227.132 19.531 A 72.918 72.918 0 0 0 226.68 19.53 Q 225.78 19.53 224.91 19.545 A 38.933 38.933 0 0 0 223.613 19.59 A 45.199 45.199 0 0 0 223.08 19.62 Q 222.78 19.62 222.66 19.41 Q 222.54 19.2 222.54 18.96 A 1.934 1.934 0 0 1 222.559 18.773 Q 222.612 18.438 222.78 18.39 Q 222.952 18.341 223.185 18.332 A 2.764 2.764 0 0 1 223.29 18.33 A 4.251 4.251 0 0 0 223.734 18.308 Q 224.348 18.244 224.64 17.985 Q 225.03 17.64 225.135 17.115 A 7.529 7.529 0 0 0 225.261 16.162 A 8.321 8.321 0 0 0 225.27 16.02 Z M 193.41 18.81 A 5.878 5.878 0 0 0 195.012 18.602 A 4.505 4.505 0 0 0 196.89 17.55 Q 198.24 16.29 198.885 14.235 A 14.169 14.169 0 0 0 199.484 11.031 A 16.895 16.895 0 0 0 199.53 9.78 A 13.203 13.203 0 0 0 199.211 6.837 A 11.594 11.594 0 0 0 198.855 5.595 Q 198.18 3.66 196.83 2.475 Q 195.48 1.29 193.41 1.29 A 5.791 5.791 0 0 0 191.83 1.495 A 4.456 4.456 0 0 0 189.975 2.535 A 6.829 6.829 0 0 0 188.479 4.602 A 8.871 8.871 0 0 0 188.01 5.805 A 13.99 13.99 0 0 0 187.442 8.767 A 17.029 17.029 0 0 0 187.38 10.23 Q 187.38 12.48 188.025 14.445 Q 188.67 16.41 190.02 17.61 A 4.71 4.71 0 0 0 192.654 18.766 A 6.32 6.32 0 0 0 193.41 18.81 Z M 299.37 18.81 A 5.878 5.878 0 0 0 300.972 18.602 A 4.505 4.505 0 0 0 302.85 17.55 Q 304.2 16.29 304.845 14.235 A 14.169 14.169 0 0 0 305.444 11.031 A 16.895 16.895 0 0 0 305.49 9.78 A 13.203 13.203 0 0 0 305.171 6.837 A 11.594 11.594 0 0 0 304.815 5.595 Q 304.14 3.66 302.79 2.475 Q 301.44 1.29 299.37 1.29 A 5.791 5.791 0 0 0 297.79 1.495 A 4.456 4.456 0 0 0 295.935 2.535 A 6.829 6.829 0 0 0 294.439 4.602 A 8.871 8.871 0 0 0 293.97 5.805 A 13.99 13.99 0 0 0 293.402 8.767 A 17.029 17.029 0 0 0 293.34 10.23 Q 293.34 12.48 293.985 14.445 Q 294.63 16.41 295.98 17.61 A 4.71 4.71 0 0 0 298.614 18.766 A 6.32 6.32 0 0 0 299.37 18.81 Z M 5.67 4.02 L 5.67 10.5 A 2.551 2.551 0 0 0 5.881 10.573 Q 6.109 10.641 6.432 10.704 A 9.866 9.866 0 0 0 6.54 10.725 A 6.219 6.219 0 0 0 7.219 10.81 A 8.087 8.087 0 0 0 7.8 10.83 Q 8.433 10.83 9.204 10.641 A 8.634 8.634 0 0 0 9.345 10.605 A 5.465 5.465 0 0 0 10.795 9.982 A 6.265 6.265 0 0 0 10.995 9.855 A 3.931 3.931 0 0 0 12.099 8.744 A 4.748 4.748 0 0 0 12.3 8.415 A 3.742 3.742 0 0 0 12.666 7.448 Q 12.772 7.001 12.8 6.478 A 7.239 7.239 0 0 0 12.81 6.09 A 6.34 6.34 0 0 0 12.745 5.155 Q 12.613 4.27 12.21 3.675 Q 11.61 2.79 10.725 2.37 A 6.378 6.378 0 0 0 9.597 1.955 A 5.441 5.441 0 0 0 8.97 1.83 A 17.293 17.293 0 0 0 8.458 1.767 Q 7.948 1.712 7.584 1.71 A 4.968 4.968 0 0 0 7.56 1.71 A 5.654 5.654 0 0 0 7.139 1.725 Q 6.709 1.757 6.42 1.86 A 0.892 0.892 0 0 0 5.919 2.305 A 1.336 1.336 0 0 0 5.835 2.505 A 2.389 2.389 0 0 0 5.755 2.825 Q 5.69 3.179 5.675 3.691 A 11.039 11.039 0 0 0 5.67 4.02 Z M 171.27 4.02 L 171.27 10.5 A 2.551 2.551 0 0 0 171.481 10.573 Q 171.709 10.641 172.032 10.704 A 9.866 9.866 0 0 0 172.14 10.725 A 6.219 6.219 0 0 0 172.819 10.81 A 8.087 8.087 0 0 0 173.4 10.83 Q 174.033 10.83 174.804 10.641 A 8.634 8.634 0 0 0 174.945 10.605 A 5.465 5.465 0 0 0 176.395 9.982 A 6.265 6.265 0 0 0 176.595 9.855 A 3.931 3.931 0 0 0 177.699 8.744 A 4.748 4.748 0 0 0 177.9 8.415 A 3.742 3.742 0 0 0 178.266 7.448 Q 178.372 7.001 178.4 6.478 A 7.239 7.239 0 0 0 178.41 6.09 A 6.34 6.34 0 0 0 178.345 5.155 Q 178.213 4.27 177.81 3.675 Q 177.21 2.79 176.325 2.37 A 6.378 6.378 0 0 0 175.197 1.955 A 5.441 5.441 0 0 0 174.57 1.83 A 17.293 17.293 0 0 0 174.058 1.767 Q 173.548 1.712 173.184 1.71 A 4.968 4.968 0 0 0 173.16 1.71 A 5.654 5.654 0 0 0 172.739 1.725 Q 172.309 1.757 172.02 1.86 A 0.892 0.892 0 0 0 171.519 2.305 A 1.336 1.336 0 0 0 171.435 2.505 A 2.389 2.389 0 0 0 171.355 2.825 Q 171.29 3.179 171.275 3.691 A 11.039 11.039 0 0 0 171.27 4.02 Z M 155.01 4.53 L 151.83 12.24 L 158.13 12.24 L 155.1 4.53 L 155.01 4.53 Z M 257.46 4.53 L 254.28 12.24 L 260.58 12.24 L 257.55 4.53 L 257.46 4.53 Z" vector-effect="non-scaling-stroke"/></g></svg>